<?xml version="1.0" encoding="UTF-8" standalone="no"?>
<!-- Created with Inkscape (http://www.inkscape.org/) -->

<svg
   width="1000"
   height="1000"
   viewBox="0 0 264.58333 264.58334"
   version="1.1"
   id="svg5"
   inkscape:version="1.2 (dc2aedaf03, 2022-05-15)"
   xml:space="preserve"
   sodipodi:docname="err4.svg"
   xmlns:inkscape="http://www.inkscape.org/namespaces/inkscape"
   xmlns:sodipodi="http://sodipodi.sourceforge.net/DTD/sodipodi-0.dtd"
   xmlns:xlink="http://www.w3.org/1999/xlink"
   xmlns="http://www.w3.org/2000/svg"
   xmlns:svg="http://www.w3.org/2000/svg"><sodipodi:namedview
     id="namedview7"
     pagecolor="#ffffff"
     bordercolor="#666666"
     borderopacity="1.0"
     inkscape:pageshadow="2"
     inkscape:pageopacity="0.0"
     inkscape:pagecheckerboard="0"
     inkscape:document-units="mm"
     showgrid="false"
     units="px"
     width="1000px"
     inkscape:snap-bbox="true"
     inkscape:bbox-paths="true"
     inkscape:bbox-nodes="true"
     inkscape:snap-bbox-edge-midpoints="true"
     inkscape:snap-bbox-midpoints="true"
     inkscape:object-paths="true"
     inkscape:snap-intersection-paths="true"
     inkscape:snap-smooth-nodes="true"
     inkscape:snap-midpoints="true"
     inkscape:snap-object-midpoints="true"
     inkscape:snap-center="true"
     inkscape:showpageshadow="0"
     inkscape:deskcolor="#d1d1d1"
     inkscape:zoom="0.254"
     inkscape:cx="513.77953"
     inkscape:cy="523.62205"
     inkscape:window-width="1366"
     inkscape:window-height="686"
     inkscape:window-x="0"
     inkscape:window-y="29"
     inkscape:window-maximized="1"
     inkscape:current-layer="layer1" /><defs
     id="defs2"><linearGradient
       inkscape:collect="always"
       id="linearGradient229"><stop
         style="stop-color:#660080;stop-opacity:1"
         offset="0"
         id="stop225" /><stop
         style="stop-color:#0044aa;stop-opacity:0"
         offset="1"
         id="stop227" /></linearGradient><linearGradient
       inkscape:collect="always"
       xlink:href="#linearGradient229"
       id="linearGradient231"
       x1="-17.707792"
       y1="155.5932"
       x2="-18.375111"
       y2="262.9982"
       gradientUnits="userSpaceOnUse" /></defs><g
     inkscape:label="Layer 1"
     inkscape:groupmode="layer"
     id="layer1"><path
       style="fill:url(#linearGradient231);stroke-width:0.265426;fill-opacity:1"
       d="m 39.379847,263.88062 c 0.255497,-0.0668 0.464505,-0.22321 0.464505,-0.34792 0,-0.12443 -0.209102,-0.2906 -0.464505,-0.36914 -0.255498,-0.0784 -0.131354,-0.10289 0.275875,-0.0543 1.071335,0.12787 0.747527,-0.46886 -0.363403,-0.66971 -0.56614,-0.10215 -0.685487,-0.17713 -0.317099,-0.19907 0.324937,-0.0188 0.970234,-0.26554 1.433986,-0.54772 l 0.843173,-0.51278 -0.903113,-0.25957 c -0.858412,-0.24672 -0.866969,-0.26082 -0.173363,-0.2834 0.792012,-0.0251 1.025785,-0.53795 0.265529,-0.58128 -0.309731,-0.0188 -0.243271,-0.0972 0.19907,-0.23888 0.483534,-0.15487 0.123517,-0.23262 -1.327147,-0.28685 l -1.99069,-0.0743 1.99069,-0.16991 c 1.094879,-0.0935 1.811527,-0.20314 1.59255,-0.24421 -0.24045,-0.0449 -0.135123,-0.15863 0.265531,-0.28686 0.618838,-0.19811 0.600969,-0.21661 -0.265531,-0.27398 l -0.928977,-0.0615 0.928977,-0.17963 c 0.928133,-0.17963 0.92763,-0.17995 -0.530839,-0.46437 l -1.459849,-0.28466 1.327147,-0.0501 c 1.003369,-0.038 1.197611,-0.10604 0.796276,-0.27839 -0.460274,-0.19781 -0.424974,-0.23291 0.265529,-0.26552 0.690409,-0.0323 0.725708,-0.0677 0.26553,-0.26553 -0.525542,-0.22572 -0.525416,-0.22822 0.01256,-0.24672 0.299388,-0.009 0.671536,0.10873 0.82725,0.26459 0.200636,0.20063 0.273994,0.10379 0.25205,-0.33177 -0.02508,-0.47517 -0.211923,-0.63746 -0.827219,-0.71417 l -0.796276,-0.0993 1.061681,-0.33741 1.06171,-0.33738 -1.194412,-0.032 c -0.656928,-0.0188 -1.373576,-0.15894 -1.592552,-0.31425 -0.289356,-0.20502 0.171168,-0.24546 1.684624,-0.14731 1.14551,0.0743 2.022417,0.0749 1.94865,0.001 -0.165525,-0.16553 -0.859632,-0.3016 -1.90802,-0.37432 l -0.796276,-0.0552 0.929009,-0.19562 c 0.894619,-0.18841 0.879916,-0.1975 -0.398138,-0.24923 -0.85471,-0.0345 -1.154788,-0.12159 -0.842986,-0.24421 0.266157,-0.10499 0.47278,-0.30566 0.458924,-0.44582 -0.01256,-0.14014 0.425193,-0.29406 0.975627,-0.34139 l 1.00083,-0.0863 -1.061617,-0.50187 -1.061649,-0.50186 0.965029,-0.009 c 1.021177,-0.009 2.463753,-0.60586 2.171827,-0.89779 -0.09498,-0.095 -0.600937,-0.18904 -1.124034,-0.20909 -0.619214,-0.0251 -0.742699,-0.0761 -0.353904,-0.15112 1.022839,-0.19687 0.655862,-0.57632 -0.663574,-0.68594 -0.813173,-0.0677 -0.625514,-0.0959 0.528614,-0.0803 1.166513,0.0157 1.831655,-0.0863 1.910811,-0.29375 0.0696,-0.18244 -0.03135,-0.25988 -0.236375,-0.18089 -0.247972,0.095 -0.345564,-0.0721 -0.318259,-0.54418 0.03135,-0.5274 0.189352,-0.69048 0.702949,-0.72149 0.36541,-0.022 0.126973,-0.12353 -0.530839,-0.22571 l -1.194414,-0.18559 1.194414,-0.0815 c 0.656926,-0.0449 1.343729,-0.0761 1.526184,-0.0693 0.501058,0.0188 0.397731,-0.40341 -0.132611,-0.54203 -0.335752,-0.0878 -0.280577,-0.14103 0.199068,-0.19218 0.439552,-0.0467 0.260201,-0.13325 -0.530839,-0.25644 l -1.194414,-0.18558 1.095537,-0.0398 c 0.602568,-0.022 1.238147,-0.21161 1.41245,-0.42166 0.263021,-0.31688 0.121947,-0.4403 -0.830134,-0.72576 l -1.147014,-0.34395 1.99069,-0.27023 c 1.380787,-0.18746 1.969215,-0.37519 1.920561,-0.61272 -0.05329,-0.25957 0.05486,-0.27556 0.447044,-0.0658 0.6979,0.37353 0.828564,0.34905 0.648054,-0.12129 -0.111598,-0.29123 0.03323,-0.39813 0.539179,-0.39813 0.380583,0 0.691976,-0.12637 0.691976,-0.28121 0,-0.15455 0.109729,-0.21317 0.243899,-0.13041 0.134181,0.0832 0.409926,-0.0157 0.612694,-0.21788 0.202831,-0.20283 1.018638,-0.45221 1.813032,-0.55432 2.646332,-0.34017 3.031272,-0.43667 3.241688,-0.81271 0.158943,-0.28402 0.373843,-0.31067 0.897034,-0.11186 0.47162,0.17931 0.798093,0.17022 1.038011,-0.0283 0.192485,-0.15987 0.56617,-0.26332 0.830352,-0.2304 0.264276,0.0329 0.659499,-0.012 0.878474,-0.10095 0.575419,-0.23294 3.982601,-0.35185 3.981943,-0.13894 -2.82e-4,0.0987 -0.209728,0.23417 -0.465068,0.30095 -0.35867,0.0938 -0.331991,0.12847 0.116937,0.15205 0.319827,0.0157 0.655548,-0.089 0.746023,-0.23544 0.108472,-0.17555 0.3508,-0.16646 0.711256,0.0251 0.310046,0.16584 0.476668,0.17932 0.384783,0.0314 -0.09875,-0.15988 0.572503,-0.30378 1.718513,-0.36836 2.353434,-0.13295 3.889149,0.022 3.385615,0.3405 -0.290609,0.18401 -0.279011,0.22979 0.05894,0.23291 0.231044,10e-4 0.509836,-0.0855 0.619339,-0.19499 0.354813,-0.3548 2.297977,-0.23511 2.156779,0.13266 -0.151104,0.39366 0.283086,0.44911 0.519586,0.0664 0.228536,-0.36973 1.393011,-0.33315 1.519977,0.0477 0.06803,0.20377 0.284339,0.23574 0.619339,0.0921 0.717243,-0.30818 2.866059,-0.32485 3.082591,-0.0251 0.104704,0.14552 0.373497,0.0903 0.648149,-0.13266 0.293432,-0.23825 0.394564,-0.25675 0.269919,-0.0492 -0.153925,0.25613 0.374406,0.33177 2.316158,0.33177 2.57589,0 3.458063,-0.14955 3.213569,-0.54526 -0.130412,-0.21066 0.540057,-0.38011 2.397731,-0.60564 0.444473,-0.0538 0.184335,-0.11441 -0.588867,-0.13639 -1.093815,-0.0314 -1.353952,-0.12099 -1.236831,-0.42629 0.120377,-0.31384 -0.243271,-0.40367 -1.932661,-0.47746 l -2.081007,-0.0909 2.298572,-0.0532 2.298542,-0.0532 0.618775,-1.72525 0.618743,-1.72528 2.258476,-0.054 2.258477,-0.054 -2.217785,-0.09 c -2.029813,-0.0821 -2.206562,-0.13296 -2.085365,-0.59628 0.117565,-0.45007 -0.07837,-0.52999 -1.763594,-0.71872 l -1.896014,-0.21223 1.969842,-0.13266 c 1.238993,-0.0833 2.010377,-0.25579 2.079158,-0.46447 0.07994,-0.24264 -0.354343,-0.3318 -1.615907,-0.3318 -1.138329,0 -1.762654,0.11231 -1.835164,0.32965 -0.152045,0.45641 -2.487234,-0.0504 -4.579308,-0.99372 -1.352038,-0.60972 -1.512359,-0.75126 -1.06168,-0.93738 0.434379,-0.17932 0.362024,-0.22728 -0.398137,-0.26428 -0.86048,-0.0417 -0.880042,-0.0609 -0.265531,-0.25768 0.590938,-0.18936 0.55404,-0.21538 -0.337069,-0.23889 -0.870323,-0.022 -1.267864,-0.28527 -3.0524,-2.01292 -1.674154,-1.62086 -1.978464,-2.03532 -1.653621,-2.25204 0.325753,-0.21726 0.291237,-0.26617 -0.189036,-0.26961 -0.418735,-0.003 -0.8986,-0.46247 -1.671834,-1.60107 -0.596456,-0.87836 -1.011898,-1.71444 -0.923211,-1.858 0.08872,-0.14357 0.0063,-0.26177 -0.186215,-0.26271 -0.191232,-7.8e-4 -0.548396,-0.35488 -0.794018,-0.78655 l -0.446573,-0.78487 2.437261,-0.0875 2.437263,-0.0875 -2.536609,-0.0552 -2.536639,-0.0552 -0.866718,-1.79162 c -0.476701,-0.98541 -0.853834,-1.88549 -0.838064,-2.00015 0.01567,-0.11471 -0.155808,-0.39309 -0.381399,-0.61862 -0.225402,-0.22541 -0.348511,-0.50969 -0.273367,-0.63142 0.07524,-0.12159 0.04044,-0.26146 -0.07713,-0.31036 -0.117566,-0.0489 -0.903616,-1.72406 -1.746603,-3.72243 -1.385926,-3.28551 -2.086587,-4.48817 -2.420333,-4.15443 -0.06489,0.0649 -0.224775,1.24643 -0.355628,2.62574 -0.206593,2.17989 -0.24672,2.31694 -0.30503,1.04801 l -0.0674,-1.45985 -0.224463,1.32715 c -0.123203,0.7299 -0.278696,2.28264 -0.344905,3.4505 l -0.120691,2.12343 1.504177,-0.0372 1.504178,-0.0372 -1.45985,0.16991 c -1.345988,0.15675 -1.466369,0.22698 -1.543834,0.89989 -0.07962,0.69112 -0.02194,0.73216 1.06171,0.77239 0.977037,0.036 1.0187,0.0583 0.283087,0.14956 -0.722479,0.0897 -0.867721,0.22288 -0.894024,0.82013 -0.03135,0.70633 -0.03323,0.70554 -0.204712,-0.0832 -0.197815,-0.90964 -0.424941,-0.65849 -0.527328,0.58342 l -0.06992,0.84884 1.544743,0.0962 1.544744,0.0963 -1.526185,0.0501 c -0.839412,0.0283 -1.541609,0.13983 -1.560482,0.24922 -0.142017,0.82581 -0.309731,2.82264 -0.334372,3.98138 -0.01567,0.76639 -0.0928,1.39348 -0.169914,1.39348 -0.07713,0 -0.136992,0.50762 -0.13261,1.12805 0.0031,0.62044 -0.07399,1.18987 -0.173675,1.26546 -0.09969,0.0755 -0.247034,0.83025 -0.327351,1.67706 -0.08025,0.84684 -0.214745,1.65098 -0.29876,1.78695 -0.08402,0.13609 0.24233,0.25926 0.725488,0.27368 0.483063,0.0157 1.176921,0.12189 1.541859,0.23889 0.509555,0.16301 0.31594,0.2185 -0.834207,0.23888 -1.614278,0.0283 -1.763061,0.16082 -1.716101,1.52738 0.01567,0.46052 -0.08119,0.7694 -0.21537,0.68636 -0.134181,-0.0831 -0.169287,0.0438 -0.07805,0.28214 0.09154,0.23825 0.0536,0.50273 -0.08402,0.58774 -0.440773,0.27242 -0.103133,1.24378 0.560059,1.61121 0.353214,0.19562 0.499772,0.36004 0.325689,0.36521 -0.17399,0.006 -0.270546,0.2483 -0.214431,0.54026 0.05611,0.29185 -0.04013,0.53923 -0.214429,0.54952 -0.173989,0.009 -0.07775,0.12129 0.214429,0.24671 0.433751,0.18654 0.360927,0.23073 -0.398138,0.24265 -0.604166,0.009 -0.80521,-0.064 -0.574948,-0.20973 0.288414,-0.18276 0.280577,-0.25268 -0.04201,-0.3764 -0.265216,-0.10185 -0.449613,0.0615 -0.558145,0.4939 -0.218819,0.87141 -0.899918,0.81932 -1.099143,-0.0841 -0.243272,-1.10283 -0.335941,-1.3084 -0.359014,-0.79628 -0.01567,0.34968 -0.23418,0.45673 -0.883615,0.4331 l -0.862611,-0.0314 0.796276,-0.20252 c 0.566516,-0.14417 0.643102,-0.21693 0.265529,-0.25268 l -0.53084,-0.0501 0.53084,-0.21818 c 0.516545,-0.21224 0.517172,-0.22384 0.02508,-0.42423 -0.480022,-0.19499 -0.475571,-0.21756 0.08339,-0.42438 0.656991,-0.24295 0.518207,-0.75376 -0.204711,-0.75376 -0.255498,0 -0.696334,-0.17524 -0.979702,-0.38971 -0.501089,-0.37901 -0.498425,-0.38992 0.09749,-0.39813 0.339421,-0.003 0.539681,-0.12697 0.448831,-0.274 -0.09029,-0.14611 0.08182,-0.26553 0.382463,-0.26553 0.570215,0 0.67511,-0.42215 0.379234,-1.52618 -0.106273,-0.39678 -0.362117,-0.5972 -0.762168,-0.5972 -0.331175,0 -1.004029,-0.17462 -1.495242,-0.38777 l -0.893115,-0.38772 1.194414,-0.0411 c 0.656927,-0.022 0.985406,-0.096 0.729908,-0.16271 -0.255497,-0.0667 -0.464473,-0.29186 -0.464473,-0.50009 0,-0.25894 -0.307223,-0.37867 -0.973243,-0.37867 -1.515839,0 -0.917441,-0.22602 0.780194,-0.29468 1.614434,-0.0652 2.111196,-0.47429 0.657522,-0.54127 -0.831387,-0.0383 -0.835462,-0.0438 -0.11254,-0.15237 0.721476,-0.10813 0.74298,-0.15455 0.566577,-1.221 -0.24327,-1.47132 -0.27462,-1.50661 -1.332194,-1.50661 -0.502312,0 -0.913334,-0.1195 -0.913334,-0.26554 0,-0.14611 0.268665,-0.2674 0.597206,-0.2696 1.098987,-0.006 1.327806,-0.34588 1.08027,-1.59759 -0.12603,-0.63666 -0.400895,-1.19151 -0.620059,-1.2512 -0.342556,-0.0935 -0.342024,-0.0706 0.0031,0.17431 0.298446,0.21098 0.0326,0.27149 -1.061712,0.24107 -1.217737,-0.0338 -1.286267,-0.0583 -0.41331,-0.14761 0.758562,-0.0778 0.941141,-0.174 0.663543,-0.34945 -0.284026,-0.17963 -0.189352,-0.24327 0.365439,-0.24641 0.623353,-0.003 0.734204,-0.10379 0.663574,-0.60126 -0.06898,-0.485 -0.234493,-0.58556 -0.881108,-0.53515 -0.669404,0.0521 -0.711695,0.022 -0.265529,-0.18026 0.436321,-0.19938 0.450931,-0.24579 0.08214,-0.26115 -0.246721,-0.009 -0.532564,-0.15424 -0.634921,-0.31976 -0.127586,-0.2066 0.05706,-0.26552 0.58821,-0.18747 0.737338,0.10813 0.76944,0.0718 0.672226,-0.76059 -0.09374,-0.80202 -0.181827,-0.87717 -1.068358,-0.90921 -0.949856,-0.0345 -0.952772,-0.0375 -0.169914,-0.19907 0.465132,-0.0959 0.828283,-0.35543 0.873238,-0.62409 0.06364,-0.37996 -0.06332,-0.4319 -0.729908,-0.29846 -0.493534,0.0987 -0.806871,0.0521 -0.806871,-0.12039 0,-0.15486 -0.388201,-0.32999 -0.862643,-0.38886 -0.709187,-0.0881 -0.650187,-0.1153 0.33177,-0.15362 1.87316,-0.073 2.293431,-0.55202 0.530873,-0.60507 l -1.459851,-0.044 1.173818,-0.15924 c 1.592958,-0.21601 1.758735,-0.80923 0.241704,-0.86526 -1.118641,-0.0414 -1.124692,-0.0461 -0.221328,-0.17868 l 0.928979,-0.1364 -0.928979,-0.18434 -0.928977,-0.18466 0.891014,-0.0351 c 0.696146,-0.0283 0.855808,-0.12667 0.72994,-0.4548 -0.08872,-0.23103 -0.161135,-0.64896 -0.161135,-0.92897 0,-0.44876 -0.21255,-0.51259 -1.791622,-0.53824 l -1.79162,-0.0283 1.194414,-0.2417 c 0.656928,-0.13295 1.390756,-0.19405 1.630703,-0.13579 0.284653,0.0689 0.414722,-0.0446 0.374281,-0.32638 -0.04389,-0.30629 -0.441964,-0.47817 -1.365267,-0.58965 l -1.30326,-0.15738 1.235138,-0.0417 1.235167,-0.0417 -0.436886,-1.29316 -0.436886,-1.29312 -1.992695,-0.27055 -1.992664,-0.27056 1.899869,0.0377 c 1.044908,0.022 1.844099,-0.052 1.775945,-0.16145 -0.06803,-0.10947 -0.743921,-0.21851 -1.501731,-0.24233 l -1.377807,-0.0432 1.459817,-0.179 c 1.357682,-0.16647 1.385551,-0.18308 0.398138,-0.24075 -0.84261,-0.0492 -0.952145,-0.10723 -0.53084,-0.28215 0.397541,-0.1649 0.164272,-0.24924 -0.928977,-0.33686 -1.357651,-0.10843 -1.336992,-0.11501 0.295311,-0.0932 l 1.755067,0.0251 -0.418829,-1.12805 -0.418828,-1.12808 -1.468972,-0.0492 -1.468941,-0.0492 1.380034,-0.0969 c 1.072339,-0.0752 1.347085,-0.18278 1.232347,-0.48175 -0.101264,-0.26428 -0.616864,-0.40012 -1.645408,-0.43384 l -1.497813,-0.0492 1.393482,-0.0975 c 2.349922,-0.16425 1.545403,-0.47324 -0.996692,-0.38263 l -2.39143,0.0852 -0.528865,1.16097 c -0.290922,0.63855 -0.528896,1.23984 -0.528896,1.3362 0,0.0963 1.423234,0.13265 3.162752,0.0809 1.739516,-0.0517 3.25244,-0.006 3.362039,0.10468 0.109728,0.10948 -1.35972,0.19908 -3.265201,0.19908 h -3.464522 l -0.440834,0.92897 c -0.439866,0.92698 -0.445006,0.9291 -2.352713,0.97588 l -1.911878,0.0467 1.787419,0.15237 1.787421,0.15204 -0.637021,1.37156 c -0.350329,0.75439 -0.562692,1.44593 -0.471871,1.53676 0.09091,0.0909 -0.09718,0.23354 -0.417513,0.31747 -0.320453,0.0838 -0.523848,0.24735 -0.452027,0.36365 0.253304,0.40967 -0.200323,1.05585 -0.762167,1.08626 -0.426102,0.022 -0.455979,0.0606 -0.119136,0.14926 0.680503,0.17931 0.264276,0.87687 -0.54454,0.91236 -0.483909,0.022 -0.551374,0.0695 -0.217565,0.1558 0.289982,0.0749 0.422967,0.27557 0.331771,0.50005 -0.08371,0.20629 -0.224775,0.55411 -0.31318,0.77308 -0.104704,0.25896 -0.0063,0.39815 0.281204,0.39815 0.250796,0 0.365001,0.12473 0.263961,0.2884 -0.09812,0.15863 -0.403623,0.22979 -0.678965,0.15769 -0.275248,-0.0721 -0.56752,-0.022 -0.649278,0.10978 -0.08182,0.13235 -0.02508,0.24045 0.124145,0.24045 0.149852,0 0.204087,0.17932 0.120063,0.39813 -0.08622,0.22415 -0.517078,0.41391 -0.987005,0.43428 -0.599465,0.0251 -0.670315,0.068 -0.251737,0.14925 0.355565,0.069 0.528959,0.25269 0.445005,0.47151 -0.07742,0.20188 0.07399,0.41305 0.346443,0.48352 0.266157,0.069 0.06583,0.12952 -0.445006,0.13475 -0.510932,0.006 -0.77966,-0.0505 -0.597206,-0.12413 0.182454,-0.0737 0.32782,-0.27337 0.322961,-0.44356 -0.0063,-0.17023 -0.255811,-0.012 -0.557768,0.35024 l -0.54896,0.65987 1.006504,0.2091 c 1.478377,0.30722 1.493174,0.53383 0.02822,0.42106 -1.263446,-0.0972 -1.288996,-0.083 -2.60611,1.43112 -0.731603,0.84115 -1.1978,1.52932 -1.036037,1.52932 0.192486,0 0.175557,0.12892 -0.04796,0.37272 -0.188411,0.20503 -0.401993,0.37002 -0.474976,0.36673 -0.07304,-0.003 -0.371585,0.009 -0.663573,0.0283 -0.442592,0.0283 -0.464662,0.0784 -0.132611,0.29282 0.219133,0.14133 0.30848,0.27398 0.19907,0.29468 -0.109414,0.022 -0.288728,0.0683 -0.398138,0.10633 -0.109414,0.038 -0.466448,0.15613 -0.793298,0.2624 -0.326817,0.10663 -0.531999,0.29405 -0.455977,0.4172 0.07587,0.12293 0.332273,0.14925 0.569431,0.0583 0.25738,-0.0987 0.129156,0.17368 -0.317821,0.67517 -0.889603,0.99842 -1.016505,1.03713 -0.798093,0.24328 0.160508,-0.58301 0.154552,-0.58486 -0.251109,-0.0772 -0.446667,0.55922 -0.397386,1.11426 0.08934,1.0061 0.164271,-0.0366 0.298446,0.0658 0.298446,0.2276 0,0.16144 -0.175242,0.22665 -0.389642,0.14417 -0.21443,-0.0821 -0.46024,-0.0354 -0.546514,0.10439 -0.08622,0.13953 -0.343622,0.25393 -0.571846,0.25393 -0.342617,0 -0.35613,-0.0709 -0.07743,-0.40661 0.295625,-0.35635 0.250795,-0.37368 -0.362996,-0.14014 -0.690784,0.26271 -0.698559,0.25269 -0.564917,-0.72144 0.129156,-0.94201 0.118807,-0.95866 -0.227597,-0.35942 -0.337069,0.5831 -0.376913,0.59267 -0.553442,0.13265 -0.270859,-0.70614 -0.254558,-0.7421 0.425631,-0.93367 0.512469,-0.14417 0.46068,-0.1812 -0.316128,-0.22541 -0.863364,-0.0492 -0.88211,-0.068 -0.265529,-0.26553 0.57382,-0.1837 0.591783,-0.2207 0.13261,-0.27399 -0.325219,-0.0377 -0.171167,-0.13699 0.398138,-0.25707 l 0.929009,-0.19562 -0.796274,-0.0517 c -0.771135,-0.0501 -0.776652,-0.0595 -0.174618,-0.30095 0.341929,-0.13699 0.718968,-0.18904 0.837876,-0.11561 0.118822,0.0733 0.153613,-0.10528 0.07713,-0.39763 -0.08308,-0.3176 -0.0094,-0.53122 0.185902,-0.53122 0.178691,0 0.256751,-0.17712 0.173675,-0.39347 -0.08308,-0.21631 0.02194,-0.88834 0.237003,-1.4932 0.547643,-1.55223 0.497608,-1.82457 -0.341929,-1.86069 l -0.729908,-0.0314 0.796274,-0.20251 c 0.757591,-0.19281 0.76405,-0.20565 0.132611,-0.26553 -0.631316,-0.0598 -0.624858,-0.0727 0.13261,-0.26552 0.671725,-0.17087 0.571407,-0.20754 -0.64144,-0.23419 -1.697698,-0.0369 -1.706444,-0.2414 -0.01567,-0.33183 1.08817,-0.058 1.570011,-0.31036 1.580575,-0.82763 0.0021,-0.10947 -0.287474,-0.19907 -0.643853,-0.19907 -0.356318,0 -0.731634,-0.1355 -0.833958,-0.30095 -0.128842,-0.20848 0.07022,-0.26365 0.647898,-0.1787 0.458675,0.0674 0.843112,0.0535 0.854273,-0.0314 0.01256,-0.0844 0.06175,-0.37136 0.112226,-0.63815 0.06458,-0.34033 -0.02508,-0.43954 -0.305343,-0.33252 -0.218506,0.084 -0.576203,-0.0251 -0.794772,-0.24484 -0.352869,-0.35287 -0.291236,-0.39735 0.55059,-0.39735 0.770977,0 0.947944,-0.099 0.947944,-0.53088 0,-0.32063 -0.18402,-0.53914 -0.464504,-0.55181 -0.369986,-0.0157 -0.383465,-0.0517 -0.06646,-0.17242 0.510244,-0.19436 0.78709,-0.6136 0.792232,-1.20002 0.003,-0.34453 -0.218819,-0.46884 -0.858567,-0.48131 -0.783298,-0.0157 -0.807687,-0.0389 -0.265217,-0.25707 0.328606,-0.13191 0.751885,-0.18089 0.940577,-0.10843 0.236062,0.0906 0.363685,-0.17397 0.409111,-0.84824 0.03637,-0.53897 0.12947,-1.08272 0.207219,-1.20839 0.07775,-0.12578 0.04264,-0.21131 -0.07775,-0.1903 -0.120377,0.022 -0.696584,0.0188 -1.280499,-0.001 -0.890449,-0.0332 -0.98293,-0.0853 -0.573255,-0.32346 0.268664,-0.15612 0.836026,-0.23293 1.26078,-0.17055 0.526388,0.0775 0.772293,-5.3e-4 0.772293,-0.2439 0,-0.23574 -0.203145,-0.30878 -0.597207,-0.21474 -0.328448,0.0784 -1.134692,0.0338 -1.79162,-0.0984 l -1.194414,-0.24107 1.45985,-0.0332 c 1.048106,-0.0251 1.347555,-0.10558 1.061711,-0.2903 -0.302209,-0.1953 -0.189977,-0.25831 0.464473,-0.26145 0.56824,-0.003 0.862642,-0.13326 0.862642,-0.38271 0,-0.20817 0.209102,-0.43332 0.464505,-0.5001 0.255498,-0.0667 -0.252048,-0.13894 -1.128077,-0.16019 -1.270029,-0.0314 -1.493614,-0.0962 -1.104065,-0.32283 0.268665,-0.15612 0.835995,-0.23293 1.260749,-0.17055 0.599307,0.0881 0.772325,0.009 0.772325,-0.34663 0,-0.3481 -0.309733,-0.50256 -1.273478,-0.63511 -1.999748,-0.27493 -2.300516,-0.66213 -0.518142,-0.6669 0.89976,-0.003 1.526183,0.11127 1.526183,0.27713 0,0.15456 0.10439,0.21663 0.2323,0.13759 0.127914,-0.079 0.232299,-0.44431 0.232299,-0.81195 0,-0.56239 -0.123518,-0.66841 -0.778751,-0.66841 -0.451589,0 -0.709845,-0.11156 -0.614731,-0.26553 0.09029,-0.14612 0.455601,-0.26552 0.811951,-0.26552 0.356349,0 0.66282,-0.1195 0.681066,-0.26554 0.01881,-0.14611 0.05079,-0.41471 0.0721,-0.5972 0.02194,-0.18246 -0.321989,-0.48263 -0.763108,-0.66695 l -0.802044,-0.3352 0.862642,0.12951 c 0.685676,0.1029 0.866311,0.0358 0.880543,-0.32838 0.02194,-0.54632 0.207533,-2.02072 0.364908,-2.88775 0.0975,-0.53733 0.04515,-0.58608 -0.382965,-0.35698 -0.272739,0.14582 -0.772388,0.26365 -1.11046,0.26177 -0.488047,-0.003 -0.382274,-0.12264 0.513411,-0.58122 1.090489,-0.55827 1.516277,-1.2731 0.758311,-1.2731 -0.203458,0 -0.441494,-0.18684 -0.529178,-0.41548 -0.120691,-0.31465 -0.03637,-0.37647 0.347382,-0.25456 0.278697,0.0884 0.562315,0.0664 0.630093,-0.0489 0.06772,-0.11531 0.201577,-1.40426 0.297193,-2.86411 0.150476,-2.29738 0.124146,-2.59178 -0.196562,-2.18976 -0.203771,0.2555 -0.596265,0.46268 -0.87214,0.46044 -0.406854,-0.003 -0.429018,-0.0498 -0.117251,-0.24704 0.410426,-0.25958 -0.02821,-0.4215 -1.711428,-0.63157 -0.694735,-0.0866 1.053749,-0.27306 2.567268,-0.27368 0.465884,-1.8e-4 0.579212,-0.39467 0.894493,-3.11407 0.153927,-1.32833 0.120691,-1.48314 -0.317758,-1.47887 -0.269291,0.003 -1.027226,-0.0314 -1.684154,-0.0746 l -1.194414,-0.0793 1.590075,-0.25487 c 1.736164,-0.27807 1.983009,-0.48394 1.989091,-1.65858 0.0031,-0.60902 -0.06678,-0.71222 -0.314435,-0.4645 -0.400865,0.40087 -0.836059,0.41808 -0.59216,0.022 0.100322,-0.1624 0.01881,-0.41087 -0.183393,-0.55232 -0.259261,-0.18246 -0.162077,-0.21317 0.33384,-0.10558 0.758875,0.16458 1.014624,-0.27776 1.022023,-1.76761 0.0031,-0.61899 -0.107216,-0.7307 -0.726304,-0.73505 -0.401461,-0.003 -1.327117,-0.16364 -2.057025,-0.35711 l -1.327147,-0.35196 2.189758,-0.20126 c 2.152986,-0.19813 2.189163,-0.21317 2.153612,-0.90368 -0.03229,-0.62529 -0.0489,-0.63684 -0.151104,-0.10499 -0.09154,0.47532 -0.287475,0.59342 -0.959198,0.57855 -0.712353,-0.0157 -0.761291,-0.0543 -0.313182,-0.24672 0.291864,-0.12547 0.374501,-0.23637 0.183395,-0.24672 -0.191232,-0.009 -0.273681,-0.13789 -0.183395,-0.28402 0.09906,-0.1602 -0.289983,-0.27494 -0.979669,-0.28936 l -1.143722,-0.0251 0.919699,-0.26397 c 0.505853,-0.14507 1.312067,-0.21787 1.79162,-0.16207 0.479553,0.0561 0.871922,0.006 0.871922,-0.11037 0,-0.11665 -0.388168,-0.2141 -0.862642,-0.2163 -0.654577,-0.003 -0.766619,-0.0661 -0.464475,-0.26145 0.341741,-0.2207 0.333527,-0.25802 -0.058,-0.26146 -0.295625,-0.003 -0.402433,-0.14417 -0.303462,-0.40221 0.08402,-0.21914 0.45253,-0.39815 0.81891,-0.39815 0.541624,0 0.639434,0.10215 0.523348,0.54601 -0.0906,0.34693 -0.02822,0.50881 0.168033,0.44397 0.419361,-0.13759 0.574039,-2.05168 0.165838,-2.05168 -0.17054,0 -0.241077,0.17931 -0.157061,0.39813 0.112854,0.29437 -0.03543,0.39711 -0.568804,0.39409 -0.496293,-0.003 -0.611063,-0.0743 -0.367541,-0.22853 0.426446,-0.27023 -0.115052,-0.53686 -1.238396,-0.60953 -0.389518,-0.0251 0.06803,-0.11471 1.01707,-0.19907 1.704154,-0.15141 1.726255,-0.16365 1.806542,-0.99073 0.08119,-0.83556 0.07742,-0.83806 -1.592551,-1.10774 l -1.673841,-0.27023 1.659388,0.0461 c 0.912677,0.0251 1.659169,-0.0435 1.658918,-0.15299 -2.82e-4,-0.10948 -0.567832,-0.21098 -1.26125,-0.2254 -2.250639,-0.0474 -2.807718,-0.44845 -0.663574,-0.47793 1.088297,-0.0157 1.924323,-0.14163 1.924323,-0.29186 0,-0.14611 -0.388169,-0.2812 -0.862611,-0.30033 l -0.862643,-0.0349 0.90788,-0.16427 c 0.499364,-0.0903 0.966691,-0.34332 1.038513,-0.56228 0.105018,-0.32019 0.05517,-0.33583 -0.255186,-0.08 -0.256123,0.2113 -0.902203,0.26522 -1.919932,0.15988 -1.546405,-0.15957 -1.609544,-0.59868 -0.08715,-0.60695 0.428672,-0.003 0.675862,-0.11695 0.581563,-0.2696 -0.0975,-0.15801 0.245466,-0.27526 0.846968,-0.28936 l 1.010989,-0.0251 -0.911769,-0.26176 c -0.624606,-0.17932 -0.803234,-0.32889 -0.567173,-0.4748 0.279323,-0.17273 0.276189,-0.24014 -0.01567,-0.35685 -0.19907,-0.079 0.01881,-0.15329 0.485133,-0.1649 1.041176,-0.0251 1.362132,-0.46193 0.705832,-0.95915 -0.45488,-0.34464 -0.456856,-0.37267 -0.02508,-0.3805 0.263963,-0.006 0.462717,-0.2091 0.460429,-0.47294 -0.0031,-0.36089 -0.05486,-0.38437 -0.231673,-0.10529 -0.177436,0.28027 -0.351834,0.2928 -0.792199,0.0571 -0.310674,-0.16615 -0.564605,-0.4174 -0.564605,-0.55823 0,-0.14073 -0.268664,-0.26899 -0.597206,-0.28466 -0.32848,-0.0157 -0.06364,-0.14731 0.588209,-0.29248 0.841828,-0.18747 1.213663,-0.17932 1.282882,0.0283 0.168347,0.50477 0.466105,0.31879 0.519336,-0.32417 0.04452,-0.53697 -0.04796,-0.6021 -0.714423,-0.50426 -0.420992,0.0618 -0.985251,-0.0157 -1.253884,-0.17148 -0.408421,-0.23731 -0.314435,-0.28841 0.573224,-0.31068 0.839852,-0.022 0.950767,-0.0743 0.530842,-0.25486 -0.369736,-0.15895 -0.41002,-0.23951 -0.132611,-0.26554 0.277443,-0.0251 0.237002,-0.10663 -0.13261,-0.26553 -0.441401,-0.18967 -0.374345,-0.23669 0.398138,-0.27807 l 0.929009,-0.0501 -0.796276,-0.20251 -0.796276,-0.20251 0.818377,-0.0314 c 0.459426,-0.0188 0.819569,-0.17712 0.821074,-0.36321 0.0015,-0.18246 0.08872,-1.01131 0.194052,-1.84187 l 0.191231,-1.51011 -1.145162,-0.10244 -1.145133,-0.1026 1.128046,-0.0464 1.128079,-0.0464 0.03981,-1.19441 c 0.02194,-0.65693 0.05173,-1.34373 0.06646,-1.52622 0.01881,-0.21756 -0.293118,-0.31099 -0.902426,-0.27147 l -0.929009,0.0601 0.929009,-0.37174 0.928978,-0.37178 -1.327116,-0.0567 -1.327147,-0.0567 1.260781,-0.27337 c 1.895167,-0.41093 1.628822,-0.93735 -0.53084,-1.04926 l -1.791622,-0.0927 1.803251,-0.052 c 1.552113,-0.0449 1.792406,-0.11636 1.725255,-0.51486 -0.07744,-0.45887 -0.809098,-0.97199 -1.725473,-1.20996 -0.261768,-0.068 -0.03574,-0.13729 0.502344,-0.15424 l 0.97829,-0.0314 -0.08433,-1.65892 c -0.04639,-0.9124 -0.09844,-1.80821 -0.115681,-1.9907 -0.01881,-0.21161 -0.463722,-0.33176 -1.225669,-0.33176 -0.656929,0 -1.194415,-0.11949 -1.194415,-0.26553 0,-0.14612 0.567363,-0.26742 1.260781,-0.26961 0.911861,-0.003 1.150587,-0.0752 0.862643,-0.26145 -0.265531,-0.17149 -0.287475,-0.25864 -0.06646,-0.26147 0.20816,-0.003 0.331772,-0.39089 0.331772,-1.04258 v -1.03854 l -1.658888,-0.25487 -1.658918,-0.25487 1.658918,-0.0338 c 0.912394,-0.0188 1.658888,-0.13849 1.658888,-0.26679 0,-0.32951 -0.681161,-0.85536 -0.867126,-0.66941 -0.08528,0.085 -0.372745,0.0283 -0.639153,-0.12697 -0.41397,-0.24077 -0.358983,-0.28278 0.378231,-0.28967 l 0.862643,-0.009 v -1.85798 c 0,-1.30724 -0.09844,-1.85918 -0.331803,-1.86203 -0.205339,-0.003 -0.230732,-0.0784 -0.06646,-0.19906 0.166779,-0.12264 0.287789,-3.84711 0.325814,-10.01575 0.08025,-13.03607 0.285908,-19.7865 0.764237,-25.08268 C 37.798146,78.514973 45.581334,59.265609 59.205801,43.097483 71.280976,28.767867 88.292342,17.071556 108.0698,9.5006112 c 10.68174,-4.089055 22.44462,-7.2057252 31.4426,-8.3309908 4.13418,-0.51700865 18.64223,-0.76793965 22.56115,-0.39021595 11.12947,1.07270295 20.82117,4.75459095 29.46221,11.19268355 3.94071,2.936095 10.55294,9.564224 13.75703,13.790186 15.14043,19.969023 24.94355,50.222527 28.57829,88.195626 0.74822,7.81671 0.75468,7.91678 0.98353,15.26198 0.21569,6.91844 0.12757,33.46138 -0.12757,38.48664 -0.0778,1.53282 -0.17649,3.99457 -0.21881,5.4705 -0.0426,1.47589 -0.14522,2.96892 -0.22759,3.3178 -0.28905,1.21985 -0.59825,5.67931 -0.4088,5.89266 0.10499,0.11845 0.0338,0.65594 -0.15863,1.19442 -0.44997,1.26012 -0.50053,4.40714 -0.0664,4.13888 0.19155,-0.11815 0.23417,-0.0727 0.11441,0.12129 -0.10559,0.17085 -0.30315,0.24202 -0.43914,0.158 -0.13924,-0.0858 -0.24986,0.40507 -0.25362,1.12372 -0.003,0.70204 -0.12667,1.79736 -0.27337,2.43403 -0.17305,0.75117 -0.17619,1.26687 -0.009,1.46875 0.16052,0.19344 0.1649,0.45846 0.012,0.70039 -0.5516,0.87211 -0.30002,1.20174 0.87373,1.14529 0.62045,-0.0314 0.85021,0.006 0.51057,0.0806 -0.39692,0.0866 -0.56583,0.26929 -0.47282,0.51172 0.0847,0.22038 -0.0188,0.37701 -0.24515,0.37701 -0.21443,0 -0.38983,-0.14328 -0.38983,-0.31852 0,-0.64571 -0.63163,0.30096 -0.69821,1.04636 -0.036,0.40259 -0.18873,1.1372 -0.33946,1.63242 -0.35052,1.15162 -0.21161,1.34761 0.98697,1.39185 0.79744,0.0283 0.85625,0.064 0.31613,0.18653 -0.54353,0.12323 -0.44754,0.18151 0.53085,0.32212 l 1.1944,0.1718 -1.4598,0.0664 c -1.16248,0.0526 -1.32469,0.10977 -0.79628,0.27869 0.59218,0.18967 0.55651,0.21536 -0.3318,0.23889 -1.27913,0.0338 -1.38381,0.74088 -0.13266,0.89615 l 0.86263,0.10723 -0.85759,0.0423 c -0.67199,0.0332 -0.89298,0.1837 -1.02124,0.69464 -0.09,0.35869 -0.10842,0.8066 -0.0411,0.99535 0.0675,0.18872 0.0157,0.55219 -0.11606,0.80766 -0.16708,0.32505 -0.13639,0.46571 0.10215,0.46854 0.20941,0.003 0.23857,0.0793 0.0758,0.19907 -0.26241,0.19279 -0.34996,0.4251 -0.59808,1.5885 -0.11127,0.52166 -0.0157,0.60163 0.7662,0.63214 l 0.89359,0.0348 -0.79913,0.16396 c -0.71329,0.14642 -0.83154,0.32355 -0.68583,1.02679 0.022,0.10947 0.16301,-0.009 0.31192,-0.26554 0.1859,-0.31942 0.5773,-0.45623 1.25269,-0.43805 0.8813,0.0251 0.91402,0.0483 0.31861,0.23889 -0.6177,0.19782 -0.62339,0.21443 -0.0821,0.23888 0.31985,0.0157 0.66235,0.15738 0.76113,0.31702 0.12473,0.20188 -0.31287,0.2627 -1.4326,0.19905 -1.51402,-0.0858 -1.62187,-0.0526 -1.77115,0.54411 -0.21037,0.84079 0.0366,1.03723 1.46294,1.16395 1.08181,0.0962 1.05839,0.10528 -0.2486,0.0978 -1.45834,-0.009 -2.08137,0.42744 -1.31,0.91608 0.26491,0.16773 0.27369,0.23168 0.0323,0.23482 -0.49985,0.006 -0.39829,0.4786 0.13266,0.61736 0.3378,0.0884 0.28341,0.14208 -0.19907,0.19687 -0.36496,0.0414 0.0529,0.15487 0.92899,0.25173 l 1.59255,0.1762 -1.52114,0.0446 c -1.68683,0.0495 -1.59813,-0.0658 -1.93364,2.5164 -0.10753,0.82877 -0.0549,1.41132 0.15079,1.65888 0.25331,0.30503 0.23042,0.38159 -0.11411,0.38159 -0.25769,0 -0.43061,0.21944 -0.43061,0.54652 0,0.30063 0.11949,0.47268 0.26552,0.38246 0.14612,-0.0903 0.26554,-0.0375 0.26554,0.11695 0,0.15455 -0.12758,0.28119 -0.28341,0.28119 -0.16803,0 -0.21035,0.22948 -0.10439,0.56411 0.0984,0.31035 0.0761,0.50056 -0.0495,0.42291 -0.12563,-0.0778 -0.25331,0.68563 -0.28402,1.69622 -0.0314,1.01058 -0.2392,2.7263 -0.46356,3.81271 -0.22447,1.08642 -0.40802,2.04004 -0.40802,2.1192 0,0.079 1.16457,0.16333 2.5879,0.18715 2.27533,0.038 2.41157,0.0649 1.12803,0.22227 l -1.4598,0.179 1.4598,0.0903 1.45986,0.0903 -1.85799,0.17179 c -1.80137,0.16647 -1.81754,0.17431 -0.53084,0.25487 0.72992,0.0458 1.05838,0.13475 0.72992,0.19813 -0.79864,0.15392 -0.75303,0.50206 0.13265,1.01334 l 0.72992,0.42134 -0.92898,-0.12891 -0.929,-0.12892 0.88693,0.3902 c 0.60742,0.26742 0.83841,0.51667 0.73294,0.79148 -0.0875,0.22792 -0.0404,0.33114 0.10843,0.2392 0.14417,-0.089 0.26239,-0.0357 0.26239,0.11875 0,0.16364 0.69333,0.29782 1.65893,0.32082 0.91239,0.022 1.32338,0.0903 0.9133,0.15174 -0.41008,0.0618 -0.81104,0.28276 -0.89102,0.49108 -0.0799,0.20848 -0.31192,0.37902 -0.51515,0.37902 -0.62345,0 -0.40953,0.52873 0.22759,0.56225 0.476,0.0251 0.43559,0.0703 -0.19907,0.22227 -0.79502,0.1906 -0.79525,0.19123 -0.13266,0.35639 0.36497,0.0909 0.90246,0.21598 1.19442,0.27775 0.32071,0.0677 0.19562,0.12443 -0.31613,0.14297 -0.8885,0.0323 -1.52622,0.55548 -0.69489,0.57009 0.83881,0.0157 1.89275,1.05329 1.06891,1.05329 -0.18715,0 -0.36223,0.26866 -0.38909,0.5972 -0.0398,0.48595 0.0924,0.6022 0.70928,0.62398 0.41697,0.0157 0.95926,0.10409 1.2051,0.19844 0.39766,0.15268 0.40296,0.21537 0.048,0.5704 -0.21944,0.21945 -0.55673,0.41686 -0.74966,0.43877 -0.19279,0.022 0.18684,0.12981 0.84369,0.23982 1.18776,0.19876 1.18591,0.19971 -0.33212,0.15927 -1.7076,-0.0455 -1.97363,0.29499 -0.67838,0.86843 0.75615,0.33469 0.79192,0.39689 0.3318,0.57699 -0.42597,0.16678 -0.37716,0.20973 0.28058,0.24703 0.78556,0.0446 0.78735,0.048 0.13266,0.2577 -0.36498,0.11695 -0.48441,0.23199 -0.26554,0.25581 0.24266,0.0251 0.1552,0.14073 -0.22351,0.29249 -0.34192,0.13699 -0.73012,0.18214 -0.86264,0.10035 -0.13266,-0.0818 -0.24077,-0.022 -0.24077,0.13235 0,0.15456 0.56733,0.29813 1.26075,0.31877 l 1.26077,0.0375 -1.0617,0.18998 c -0.58391,0.10469 -0.94929,0.20691 -0.81189,0.22791 0.13729,0.022 0.0188,0.21852 -0.26552,0.43965 -0.28341,0.22101 -0.3958,0.3861 -0.24986,0.36672 0.14611,-0.0188 0.44459,-0.0188 0.66357,2.3e-4 0.35391,0.0317 0.35391,0.064 0,0.2928 -0.28967,0.18715 -0.0363,0.27023 0.92898,0.30471 l 1.32712,0.0473 -1.438,0.15581 c -1.34891,0.14612 -1.43995,0.20159 -1.46901,0.89503 -0.022,0.54341 0.11187,0.76916 0.50903,0.8523 0.29687,0.0621 0.7789,0.16364 1.07086,0.22541 0.3771,0.0796 0.30032,0.13325 -0.26554,0.18464 -0.60278,0.0549 -0.4738,0.11665 0.53088,0.25455 l 1.32712,0.18215 -1.43057,0.0417 c -1.07783,0.0314 -1.52322,-0.0727 -1.80626,-0.42277 -0.34096,-0.42157 -0.34974,-0.41077 -0.095,0.11665 0.20314,0.42064 0.61768,0.63158 1.50122,0.76408 1.36828,0.20502 1.11732,0.6346 -0.37491,0.6415 -0.51707,0.003 -0.81081,0.11321 -0.71423,0.2696 0.0903,0.14611 0.48544,0.26742 0.87828,0.2696 0.91459,0.006 1.78163,0.49874 0.97968,0.55768 -0.29186,0.022 -0.11292,0.12697 0.39814,0.2345 0.90082,0.18967 0.88875,0.1975 -0.39814,0.26208 -0.72991,0.0366 -1.4764,0.047 -1.65888,0.022 -0.18246,-0.0251 -0.33181,0.0887 -0.33181,0.24954 0,0.16113 0.1195,0.21882 0.26552,0.12847 0.14612,-0.0903 0.26522,-0.006 0.26491,0.1834 -5.4e-4,0.2558 0.47243,0.33756 1.79162,0.31004 1.69946,-0.0354 1.72351,-0.0283 0.46505,0.14731 l -1.32713,0.18464 1.06171,0.13984 c 0.94827,0.12503 0.89156,0.14731 -0.53086,0.21099 -1.23721,0.0552 -1.44449,0.11845 -0.92899,0.28371 l 0.66357,0.21254 -0.66357,0.0696 c -0.36496,0.0383 -0.006,0.15015 0.79627,0.24859 l 1.45986,0.17902 -1.59256,0.0793 c -0.87589,0.0435 -1.32381,0.13101 -0.99533,0.19436 0.32844,0.0633 0.5972,0.22604 0.5972,0.362 0,0.1358 0.38817,0.26585 0.86261,0.28873 0.62173,0.0314 0.49263,0.0855 -0.46219,0.19906 -1.56778,0.18622 -1.95532,0.86318 -0.74649,1.30395 l 0.7442,0.27149 -0.71426,0.022 c -0.39283,0.012 -0.78992,0.14327 -0.88236,0.29281 -0.0924,0.14955 -0.009,0.23918 0.18339,0.19906 0.19343,-0.0401 0.32893,0.0546 0.30128,0.21036 -0.0314,0.17117 0.27398,0.23574 0.76762,0.16333 0.56514,-0.083 0.76038,-0.0283 0.63178,0.18089 -0.10215,0.16552 -0.35443,0.30095 -0.56022,0.30095 -0.52622,0 -0.17617,0.78853 0.36752,0.82768 0.23982,0.0188 0.0778,0.12263 -0.36018,0.23387 -0.73956,0.1881 -0.71122,0.2066 0.39813,0.26051 1.20346,0.0583 1.17138,0.10379 -0.4645,0.66006 -0.32844,0.11157 -0.59535,0.2787 -0.59312,0.37118 0.012,0.5628 0.60911,0.81659 2.12667,0.90644 1.54773,0.0915 1.51405,0.0998 -0.33976,0.0799 -1.13171,-0.012 -2.05736,0.0677 -2.05702,0.17713 2.5e-4,0.10932 0.44852,0.20752 0.99598,0.21756 0.54741,0.009 1.23421,0.115 1.52618,0.23261 0.41162,0.16585 0.15643,0.28905 -1.13617,0.5483 -0.91685,0.18403 -1.61375,0.38757 -1.54866,0.45266 0.0652,0.0652 0.6958,0.27713 1.4016,0.47099 l 1.28323,0.35266 -1.32713,0.0452 c -1.30657,0.0446 -1.31535,0.0504 -0.56606,0.38153 0.62297,0.27524 0.67959,0.3675 0.31193,0.50855 -0.38811,0.14895 -0.39784,0.22352 -0.0718,0.54964 0.20754,0.20754 0.72405,0.4289 1.1478,0.49184 0.42372,0.063 -44.02012,0.11845 -98.76406,0.12354 -54.74399,0.006 -99.325462,-0.0458 -99.069996,-0.11247 z m 5.806856,-14.34906 c 0.330173,-0.42098 0.320767,-0.43039 -0.100322,-0.10035 -0.44212,0.34676 -0.582723,0.56469 -0.36428,0.56469 0.05517,0 0.264276,-0.20909 0.464505,-0.46447 z m 116.559247,-2.89471 c -0.17963,-0.0727 -0.53803,-0.0772 -0.79628,-0.009 -0.25831,0.0675 -0.11127,0.12667 0.32672,0.13235 0.43796,0.006 0.64925,-0.0495 0.46956,-0.12218 z m -18.98296,-0.28872 c -1.13137,-0.0498 -2.98271,-0.0498 -4.11408,0 -1.1314,0.0498 -0.20566,0.0906 2.05702,0.0906 2.26277,0 3.18843,-0.0407 2.05706,-0.0906 z m 24.75091,-0.32573 c 0.35387,-0.0157 0.35387,-0.0446 0,-0.27335 -0.28935,-0.18686 -0.30315,-0.25833 -0.0508,-0.26147 0.66108,-0.006 0.0157,-0.53506 -0.69488,-0.56858 -0.39285,-0.0188 0.0464,-0.13236 0.97612,-0.25267 0.92974,-0.12039 1.89467,-0.40398 2.1443,-0.62991 0.24955,-0.22603 0.6465,-0.41077 0.88184,-0.41077 0.23543,0 0.51315,-0.13789 0.61733,-0.3066 0.11322,-0.18276 0.0733,-0.23449 -0.0987,-0.12817 -0.15832,0.0978 -0.34836,0.0806 -0.422,-0.0386 -0.0737,-0.11919 0.29625,-0.24578 0.82161,-0.28089 0.52553,-0.0354 1.1449,-0.18434 1.37632,-0.33121 0.32431,-0.20565 0.26866,-0.23042 -0.24264,-0.10872 -0.5535,0.13205 -0.58746,0.11037 -0.20471,-0.13012 0.25236,-0.15832 0.5376,-0.27337 0.63387,-0.2555 0.0963,0.0188 0.274,-0.12667 0.3948,-0.32173 0.15736,-0.25362 -0.022,-0.43762 -0.63389,-0.64677 -0.77649,-0.26585 -0.6137,-0.31255 1.80058,-0.51721 2.20863,-0.18715 2.47602,-0.25424 1.59255,-0.39992 -0.83294,-0.13729 -0.90104,-0.18309 -0.31613,-0.21286 0.42223,-0.022 0.67445,-0.15268 0.58156,-0.30315 -0.0935,-0.15111 0.15707,-0.27683 0.58155,-0.29187 l 0.74558,-0.0251 -0.66358,-0.21254 c -0.52368,-0.16772 -0.37245,-0.21819 0.71743,-0.23889 0.75958,-0.0157 1.69654,-0.17022 2.08221,-0.34593 0.62692,-0.2856 0.64934,-0.3399 0.21161,-0.51219 -0.38539,-0.15173 -0.32008,-0.20347 0.30658,-0.24296 0.43796,-0.0283 0.88227,-0.0369 0.98743,-0.022 0.10498,0.0157 0.31835,-0.20879 0.4738,-0.49942 0.15551,-0.29062 0.52446,-0.52822 0.81989,-0.52822 0.29531,0 0.46334,-0.11949 0.37313,-0.26553 -0.0953,-0.15424 0.16708,-0.26552 0.6262,-0.26552 0.43462,0 1.0003,-0.0806 1.25701,-0.17902 0.43318,-0.16614 0.42997,-0.19342 -0.0446,-0.37948 -0.48109,-0.18841 -0.47792,-0.20157 0.0532,-0.21913 0.31069,-0.009 0.7134,-0.19781 0.89513,-0.41679 0.18182,-0.21913 0.49034,-0.39813 0.6858,-0.39813 0.44623,0 1.1456,-2.27614 1.34564,-4.37953 0.13385,-1.40786 0.009,-2.03063 -1.08578,-5.37005 -1.32925,-4.05845 -2.12763,-5.37966 -3.25075,-5.37966 -0.92221,0 -1.98592,0.6821 -2.70872,1.73694 -0.81776,1.19341 -3.39703,7.18485 -4.82262,11.20253 -0.67213,1.89414 -1.29744,3.25144 -1.498,3.25144 -0.18935,0 -0.34988,-0.14925 -0.35672,-0.33177 -0.006,-0.18246 -0.0366,-1.57574 -0.0664,-3.09616 -0.0363,-1.86959 -0.15675,-2.79882 -0.3719,-2.87086 -0.17493,-0.0586 -0.89157,0.76737 -1.59255,1.83538 -0.701,1.06805 -1.33425,2.0016 -1.40726,2.07459 -0.19312,0.1931 -0.79628,1.29626 -0.79628,1.45624 0,0.0749 0.56735,0.15769 1.26078,0.18402 l 1.26077,0.048 -1.31213,0.10155 c -0.96569,0.0746 -1.47041,0.27243 -1.91165,0.74843 l -0.59956,0.64693 0.58454,0.0157 c 0.55856,0.0157 0.55539,0.0283 -0.0718,0.27869 -0.36089,0.14388 -0.87317,0.49479 -1.13839,0.77945 -0.59769,0.64154 -1.00475,0.6601 -1.16369,0.053 -0.14701,-0.56112 -2.32096,-0.8086 -2.6353,-0.30001 -0.10723,0.17368 -0.0872,0.25016 0.0452,0.17054 0.13191,-0.08 0.71788,-0.0523 1.30179,0.0612 0.58395,0.11351 0.79295,0.22008 0.4645,0.23701 -0.41008,0.022 -0.5972,0.19687 -0.5972,0.56137 0,0.41422 -0.18967,0.53912 -0.86265,0.56852 -0.83075,0.0363 -0.82339,0.0446 0.19907,0.22759 l 1.06172,0.18998 -1.06172,0.0643 c -0.94287,0.0571 -0.98744,0.0878 -0.39813,0.27651 0.63661,0.20377 0.6393,0.21349 0.0664,0.23889 -0.45303,0.0188 -0.59722,0.18684 -0.59722,0.69003 0,0.42629 0.14926,0.66353 0.41711,0.66353 0.22948,0 0.58937,0.17242 0.79997,0.38291 0.33357,0.33352 0.32256,0.41799 -0.0852,0.65548 -0.25739,0.14985 -0.34874,0.2881 -0.20285,0.30723 0.14612,0.0188 -0.0332,0.13011 -0.39813,0.24704 l -0.66354,0.21254 0.71423,0.0251 c 1.02065,0.038 1.16056,0.48227 0.21694,0.68952 -0.80943,0.17776 -1.01992,0.49596 -0.52882,0.79945 0.14836,0.0915 0.20094,0.27807 0.11695,0.41382 -0.084,0.13579 0.0633,0.25548 0.32748,0.26583 0.42858,0.0157 0.42315,0.0432 -0.0508,0.24672 -0.35763,0.15361 -0.40093,0.23543 -0.13265,0.25081 0.3539,0.0188 0.3539,0.0532 0,0.29624 -0.28622,0.19687 0.012,0.23638 1.06172,0.14043 0.80291,-0.073 1.639,-0.14014 1.85798,-0.14896 z m -2.96945,-5.76306 c 0.19155,-0.0769 0.42052,-0.0671 0.50874,0.022 0.0881,0.0881 -0.0686,0.1508 -0.34838,0.13953 -0.3091,-0.012 -0.3721,-0.0755 -0.16021,-0.1605 z m 21.54919,-6.18891 c 0,-0.14612 0.17932,-0.26552 0.39814,-0.26552 0.21913,0 0.39814,0.11949 0.39814,0.26552 0,0.14611 -0.17932,0.26553 -0.39814,0.26553 -0.21912,0 -0.39814,-0.11949 -0.39814,-0.26553 z m -90.509987,11.41331 c 0.298447,-0.19312 0.165838,-0.25739 -0.530871,-0.25739 -0.510933,0 -1.108141,0.11561 -1.327116,0.25739 -0.298446,0.19279 -0.165839,0.25736 0.53084,0.25736 0.510965,0 1.108171,-0.1156 1.327147,-0.25736 z m 4.856657,-0.44239 c -0.0746,-0.19467 -0.003,-0.35389 0.158,-0.35389 0.16145,0 0.29374,0.15862 0.29374,0.35217 0,0.24892 0.25331,0.31161 0.86265,0.21381 l 0.86261,-0.13849 -0.79628,-0.18215 c -0.63542,-0.14551 -0.4746,-0.19656 0.79628,-0.25361 l 1.59255,-0.0712 -1.19442,-0.1856 -1.19441,-0.18558 1.25244,-0.0398 c 0.97309,-0.0314 1.21962,-0.12548 1.10529,-0.42335 -0.0809,-0.21097 -0.58479,-0.4297 -1.11971,-0.48623 -0.84408,-0.089 -0.79725,-0.11097 0.35453,-0.16616 0.72994,-0.0348 1.55964,-0.15423 1.84379,-0.26552 0.47917,-0.18746 0.46958,-0.21537 -0.13261,-0.38516 l -0.64934,-0.18308 0.5973,-0.3355 c 0.56416,-0.31691 0.57206,-0.36077 0.14233,-0.79064 -0.42987,-0.42985 -0.41513,-0.4551 0.26521,-0.4551 0.83202,0 0.87089,-0.57149 0.0567,-0.83617 -0.39632,-0.12892 -0.30659,-0.17932 0.35391,-0.19908 1.29097,-0.0386 0.92261,-0.65529 -0.50724,-0.84921 l -1.17381,-0.15926 1.37784,-0.0398 c 0.75777,-0.022 1.45163,-0.15926 1.54185,-0.30534 0.0903,-0.14612 0.006,-0.27369 -0.18339,-0.28339 -0.19123,-0.009 -0.0787,-0.14762 0.24986,-0.30598 0.7126,-0.34369 0.77926,-0.72741 0.13261,-0.76421 -0.30974,-0.0188 -0.24328,-0.0972 0.19906,-0.23889 0.36494,-0.11695 0.48438,-0.22633 0.26553,-0.24295 -0.35387,-0.0283 -0.35387,-0.0592 0,-0.28779 0.30786,-0.19875 0.21726,-0.26302 -0.39813,-0.28246 -0.82948,-0.0251 -0.78449,-0.0615 0.53086,-0.41783 0.66374,-0.17994 0.46489,-0.24201 -1.19441,-0.37356 l -1.99069,-0.15767 1.78329,-0.0477 c 1.41436,-0.038 1.75352,-0.12533 1.63941,-0.42275 -0.0846,-0.22038 0.0555,-0.42647 0.34012,-0.50005 0.26615,-0.0689 -0.0834,-0.13894 -0.77678,-0.15581 -1.50838,-0.0369 -1.71469,-0.56165 -0.2207,-0.56165 2.36999,0 2.57516,-0.77878 0.2207,-0.83797 l -1.65892,-0.0417 1.32712,-0.17116 c 1.28978,-0.16616 1.30097,-0.17494 0.39813,-0.31393 l -0.92897,-0.14298 1.0971,-0.0426 c 0.94434,-0.0366 1.11478,-0.13475 1.22397,-0.70604 0.0737,-0.38471 0.003,-0.66529 -0.16802,-0.66764 -0.16427,-0.003 -0.13266,-0.10693 0.0709,-0.23574 0.20126,-0.12728 0.28308,-0.36547 0.18214,-0.52902 -0.10603,-0.17148 0.0761,-0.40156 0.43048,-0.5437 0.48532,-0.19469 0.25206,-0.25895 -1.11101,-0.30566 -0.94889,-0.0326 -1.30721,-0.10065 -0.79628,-0.15111 0.51096,-0.0505 1.36502,-0.22571 1.89793,-0.38941 1.20914,-0.37134 1.30626,-0.77399 1.23209,-5.10724 -0.0523,-3.05444 -0.0595,-3.09331 -0.14267,-0.76311 l -0.0875,2.4552 -1.91435,-0.0501 -1.91439,-0.0501 1.58399,-0.0975 c 1.11751,-0.0687 1.46929,-0.17117 1.19441,-0.34796 -0.31926,-0.20533 -0.28339,-0.27963 0.19813,-0.41165 0.99137,-0.27178 0.0389,-0.89511 -1.43138,-0.93664 -0.70386,-0.0188 -0.98111,-0.0846 -0.61617,-0.14388 0.36496,-0.0592 0.90245,-0.21349 1.19441,-0.34258 0.29186,-0.12922 0.71003,-0.29531 0.92901,-0.36924 0.28278,-0.0953 0.21003,-0.1909 -0.2511,-0.32941 -0.60343,-0.18151 -0.61284,-0.20942 -0.13266,-0.39735 0.29437,-0.11531 -0.511,-0.19876 -1.87219,-0.19438 -1.58142,0.006 -2.16455,0.0796 -1.72526,0.2204 0.63301,0.20283 0.63621,0.21379 0.0693,0.23887 -0.74987,0.0332 -1.65709,0.79193 -1.48464,1.24132 0.0718,0.18747 -0.0505,0.73709 -0.27149,1.22175 -0.22133,0.48466 -0.76082,1.68744 -1.19905,2.67282 -0.4382,0.98541 -0.9307,1.79162 -1.09447,1.79162 -0.16365,0 -0.23794,0.0969 -0.16459,0.21569 0.0734,0.11845 -0.2207,0.83517 -0.65326,1.59255 l -0.78646,1.37703 -1.918962,0.0467 -1.918962,0.0467 1.857987,0.17179 c 1.021866,0.0944 1.662207,0.19281 1.422983,0.21852 -0.239197,0.0251 -0.418422,0.2558 -0.398138,0.51137 0.03198,0.40183 -0.28528,0.48241 -2.351992,0.59721 -1.887455,0.10498 -2.200794,0.17462 -1.493017,0.3318 0.49272,0.10932 1.436902,0.19907 2.098187,0.19907 1.185574,0 1.195667,0.006 0.721977,0.53083 -0.264276,0.29187 -0.641065,0.53085 -0.837405,0.53085 -0.196248,0 -0.327164,0.13893 -0.29061,0.30816 0.03669,0.16961 -0.232299,0.39654 -0.597207,0.50439 -0.364938,0.10782 -0.499616,0.20815 -0.299387,0.22258 0.503347,0.0366 -0.144515,0.82273 -0.677869,0.82273 -0.209728,0 -0.312241,0.11157 -0.227911,0.24798 0.08433,0.13639 -0.248287,0.5545 -0.739282,0.92897 -0.678715,0.51767 -1.236546,0.69041 -2.327444,0.72072 l -1.434801,0.0398 1.194412,0.16113 c 1.113219,0.15017 1.155007,0.1834 0.61467,0.49097 -0.318888,0.18152 -0.833551,0.33001 -1.143723,0.33001 -0.310359,0 -0.500964,0.10185 -0.423907,0.22666 0.154867,0.25079 -0.96434,0.83509 -1.600012,0.83509 -0.222581,0 -0.58379,0.17932 -0.802765,0.39813 -0.353904,0.35391 0.0094,0.40247 3.270435,0.43717 2.535826,0.0283 3.203693,0.0887 2.162986,0.20064 -1.367619,0.14671 -2.435756,0.54332 -1.52471,0.56611 0.206906,0.006 0.07742,0.17869 -0.287475,0.38534 -0.656113,0.37171 -0.652382,0.37513 0.331771,0.30441 0.547456,-0.0395 0.995344,0.012 0.995344,0.11635 0,0.32217 1.97837,0.44766 2.185714,0.13849 0.136066,-0.20283 0.196248,-0.19406 0.19907,0.0283 0.0021,0.17588 0.451965,0.40047 0.999388,0.49913 1.324044,0.23857 1.894573,0.67739 1.220153,0.93844 -0.307539,0.1192 -0.09467,0.17305 0.571469,0.14522 0.638618,-0.0283 1.041145,0.0698 1.01011,0.24297 -0.02822,0.1583 0.109413,0.28747 0.306593,0.28747 0.19688,0 0.29688,-0.15926 0.22227,-0.35391 z m -6.241237,-5.32755 c 0.771292,-0.054 1.965704,-0.0532 2.654233,0.001 0.688528,0.0546 0.05737,0.0984 -1.402387,0.0978 -1.459817,-7.8e-4 -2.023167,-0.0452 -1.251846,-0.099 z m -0.672475,5.05174 c -0.328449,-0.0633 -0.865934,-0.0633 -1.194414,0 -0.328448,0.0633 -0.05988,0.11501 0.597206,0.11501 0.656928,0 0.925686,-0.0517 0.597208,-0.11501 z m 86.802072,-0.80288 c -0.61605,-0.0558 -1.69102,-0.0564 -2.38883,-0.002 -0.69784,0.0549 -0.19373,0.10035 1.12006,0.10125 1.31386,8.1e-4 1.88478,-0.0443 1.26877,-0.0998 z M 88.456734,241.9666 c -0.200949,-0.20095 -0.394532,-0.21537 -0.567268,-0.0426 -0.172735,0.17274 -0.06866,0.27681 0.305031,0.30503 0.427229,0.0323 0.491966,-0.0326 0.262394,-0.26239 z m -2.362054,-0.10902 c -0.182454,-0.0737 -0.481057,-0.0737 -0.663543,0 -0.182453,0.0737 -0.03323,0.13385 0.331771,0.13385 0.36497,0 0.514257,-0.0603 0.331772,-0.13385 z M 61.5476,241.57826 c -0.398828,-0.0604 -1.115476,-0.0618 -1.592552,-0.003 -0.477045,0.0589 -0.150791,0.10843 0.725174,0.11008 0.875904,0.001 1.266236,-0.0467 0.867378,-0.10753 z m 21.030206,0.0283 c 0,-0.21975 -0.515386,-0.3439 -0.633542,-0.15268 -0.07681,0.12413 0.03449,0.22541 0.247034,0.22541 0.212549,0 0.386446,-0.0326 0.386446,-0.0727 z m 2.057055,-0.28716 c -0.255497,-0.0667 -0.67351,-0.0667 -0.929009,0 -0.255498,0.0667 -0.04639,0.12129 0.464505,0.12129 0.510934,0 0.719971,-0.0546 0.464504,-0.12129 z m 150.328749,-0.32832 c -0.19782,-0.12233 -0.45984,-0.38425 -0.58213,-0.5821 -0.16145,-0.26083 -0.21129,-0.21099 -0.18152,0.18152 0.0251,0.33907 0.24297,0.55657 0.58213,0.58213 0.39266,0.0283 0.44253,-0.0188 0.18152,-0.18152 z M 62.036932,240.77962 c -0.264589,-0.26458 -1.180307,-0.35932 -1.317459,-0.1364 -0.06615,0.10753 0.242958,0.22164 0.686583,0.25393 0.443751,0.0323 0.727653,-0.022 0.630876,-0.11755 z m 8.50946,-0.24954 c -0.202203,-0.20221 -2.041757,-0.17242 -2.250639,0.0363 -0.07681,0.0769 0.437921,0.13953 1.143503,0.13953 0.705582,0 1.203788,-0.079 1.107136,-0.17586 z m -10.795147,-2.84823 c 0,-0.0574 -0.179006,-0.17305 -0.398138,-0.25705 -0.219133,-0.084 -0.398138,-0.0369 -0.398138,0.10439 0,0.14133 0.179005,0.25707 0.398138,0.25707 0.219132,0 0.398138,-0.0471 0.398138,-0.10439 z m 82.890075,-0.0918 c -0.90634,-0.0517 -2.45908,-0.0521 -3.45054,-8e-4 -0.99145,0.0512 -0.24985,0.0935 1.64788,0.0941 1.89778,5.3e-4 2.70897,-0.0414 1.80266,-0.0932 z m 91.05944,-0.2019 c 0.084,-0.21913 0.0369,-0.39813 -0.10439,-0.39813 -0.14133,0 -0.25705,0.179 -0.25705,0.39813 0,0.21912 0.047,0.39814 0.10439,0.39814 0.0574,0 0.17305,-0.17933 0.25707,-0.39814 z m -68.24392,-1.90106 c -0.18245,-0.0737 -0.48109,-0.0737 -0.66357,0 -0.18244,0.0737 -0.0332,0.13385 0.3318,0.13385 0.36494,0 0.51426,-0.0601 0.33177,-0.13385 z m -56.07109,-0.6205 c 0,-0.14612 -0.12638,-0.26554 -0.28121,-0.26554 -0.15455,0 -0.20723,0.1195 -0.11695,0.26554 0.0903,0.14611 0.21663,0.26553 0.2812,0.26553 0.0643,0 0.11696,-0.11949 0.11696,-0.26553 z m 57.33187,-1.06168 c 0,-0.14611 -0.40929,-0.26553 -0.90953,-0.26553 -0.64301,0 -0.9451,-0.1361 -1.0309,-0.46451 -0.0746,-0.28559 -0.13325,-0.18371 -0.15235,0.26554 -0.0283,0.67974 0.0423,0.7299 1.03091,0.7299 0.58395,0 1.06172,-0.11949 1.06172,-0.26553 z m 0.26554,-0.79627 c 0,-0.14612 -0.23889,-0.26554 -0.53085,-0.26554 -0.29186,0 -0.53083,0.1195 -0.53083,0.26554 0,0.14611 0.23888,0.26552 0.53083,0.26552 0.29187,0 0.53085,-0.1195 0.53085,-0.26552 z m 61.24135,-0.16052 c -0.0881,-0.0881 -0.31714,-0.0975 -0.5087,-0.022 -0.21192,0.0846 -0.14896,0.14762 0.1605,0.16051 0.27964,0.012 0.43658,-0.0512 0.34836,-0.13954 z M 56.566267,232.21219 c 0,-0.14611 -0.126644,-0.26552 -0.281204,-0.26552 -0.154553,0 -0.207221,0.1195 -0.116937,0.26552 0.09029,0.14612 0.216626,0.26554 0.281205,0.26554 0.06426,0 0.116937,-0.1195 0.116936,-0.26554 z m 38.818443,0.0733 c -0.474442,-0.0589 -1.250811,-0.0589 -1.725285,0 -0.474442,0.0589 -0.0862,0.10723 0.862643,0.10723 0.948884,0 1.337084,-0.0483 0.862642,-0.10723 z m 71.30331,-1.59959 c -0.5402,-4.86497 -0.7673,-7.85131 -0.76696,-10.08616 2.6e-4,-1.46009 -0.10723,-2.45518 -0.26489,-2.45518 -0.14612,0 -0.26554,-0.17934 -0.26554,-0.39815 0,-0.21913 0.1195,-0.39813 0.26554,-0.39813 0.14612,0 0.26177,-0.56734 0.25737,-1.26075 -0.006,-0.94767 -0.0724,-1.15066 -0.26678,-0.81735 -0.44068,0.75518 -0.61687,5.02795 -0.28559,6.92955 0.21693,1.24648 0.23261,2.45606 0.0526,4.09872 -0.14044,1.28171 -0.3172,3.12902 -0.39296,4.10507 -0.12981,1.67088 -0.10349,1.78132 0.44789,1.88818 1.46235,0.28341 1.43348,0.32147 1.21948,-1.6058 z m -77.370148,1.10635 c 0.08872,-0.23105 0.161137,-0.64897 0.161137,-0.92898 0,-0.46196 -0.209101,-0.50915 -2.256095,-0.50915 -1.240873,0 -2.256124,0.0655 -2.256124,0.14582 0,0.0803 0.18214,0.49827 0.404972,0.92898 0.384093,0.74279 0.491935,0.78311 2.094988,0.78311 1.296268,0 1.727606,-0.0978 1.851154,-0.41986 z m 0.42654,-2.35259 c 0,-0.58334 -0.127585,-0.65906 -1.26078,-0.74841 l -1.260749,-0.0994 1.363355,-0.048 c 1.314984,-0.0461 1.369063,-0.0784 1.524681,-0.91045 0.08872,-0.47447 0.239196,-2.62442 0.334091,-4.77765 l 0.172735,-3.91505 0.691349,-0.0398 0.691381,-0.0398 -0.72994,-0.11067 c -0.661159,-0.10005 -0.730442,-0.21506 -0.735739,-1.22099 -0.0031,-0.61076 -0.233241,-1.61109 -0.510934,-2.22303 -0.362024,-0.7974 -0.416759,-1.14862 -0.193113,-1.2398 0.171481,-0.07 0.03606,-0.13669 -0.300954,-0.14836 -0.337163,-0.012 -0.539054,-0.14043 -0.44883,-0.28623 0.09029,-0.14612 0.04295,-0.26552 -0.105332,-0.26552 -0.148283,0 -0.696365,-0.28968 -1.218333,-0.64402 -0.894745,-0.60721 -0.914401,-0.65065 -0.343558,-0.76013 0.332993,-0.064 -0.529241,-0.1153 -1.91611,-0.11441 -1.829928,0.001 -2.230325,0.0536 -1.459817,0.19155 0.583914,0.10469 0.871169,0.2069 0.638337,0.22791 -0.232926,0.022 -0.639529,0.2765 -0.903773,0.56852 -0.264276,0.29186 -0.73063,0.53924 -1.036475,0.5495 -0.545731,0.0188 -0.546202,0.022 -0.02508,0.24672 0.462436,0.19876 0.428234,0.23448 -0.265529,0.27744 -0.469678,0.0283 -0.605766,0.099 -0.331772,0.17085 0.575922,0.15048 0.59031,0.0251 -0.19656,1.71501 -0.739596,1.58875 -0.802547,2.37735 -0.364093,4.56068 l 0.302209,1.50412 1.489536,0.0492 1.48957,0.0492 -1.393483,0.0975 c -0.785429,0.0549 -1.393482,0.22603 -1.393482,0.39206 0,0.16207 0.200949,0.93215 0.446604,1.71139 l 0.446604,1.41681 1.345016,0.048 1.345016,0.048 -1.260781,0.0995 c -0.693418,0.0546 -1.26078,0.14985 -1.26078,0.21162 0,0.17429 1.296111,3.57523 1.469505,3.85578 0.08496,0.13729 1.282035,0.24986 2.660251,0.24986 2.481027,0 2.505886,-0.006 2.505886,-0.64902 z m 21.149898,-0.99327 c -0.0847,-0.21161 -0.14761,-0.14896 -0.16051,0.16018 -0.012,0.27996 0.0511,0.43659 0.13954,0.34839 0.0881,-0.0881 0.0975,-0.31713 0.022,-0.50874 z m -13.248742,0.12547 c -0.398828,-0.0606 -1.115476,-0.0618 -1.59255,-0.003 -0.477045,0.0589 -0.150792,0.10843 0.725174,0.11007 0.875904,0.002 1.266236,-0.0467 0.867376,-0.10753 z m 1.056947,-3.98183 c -0.401461,-0.0609 -1.058389,-0.0609 -1.45985,0 -0.40143,0.0609 -0.07304,0.11067 0.729941,0.11067 0.802891,0 1.13137,-0.0498 0.729909,-0.11067 z m 1.330215,-1.85023 c -0.253925,-0.0664 -0.731535,-0.069 -1.061675,-0.006 -0.330173,0.0637 -0.122576,0.11785 0.46137,0.12069 0.583945,0.003 0.854085,-0.0489 0.600305,-0.11531 z m -23.891372,-0.80404 c -0.401429,-0.0609 -1.058357,-0.0609 -1.459817,0 -0.401461,0.0609 -0.07304,0.11067 0.729908,0.11067 0.802922,0 1.13137,-0.0498 0.729909,-0.11067 z m 18.18164,-1.06359 c -0.474443,-0.0589 -1.250811,-0.0589 -1.725254,0 -0.474442,0.0589 -0.08622,0.10723 0.862611,0.10723 0.948917,0 1.337085,-0.0483 0.862643,-0.10723 z m 13.241252,-0.39984 c -1.1399,-0.17462 -1.87332,-0.1696 -2.25613,0.0157 -0.4361,0.21129 -0.0458,0.27086 1.68892,0.25864 l 2.25613,-0.0157 z m -7.800024,-0.12189 c -0.255497,-0.0668 -0.673511,-0.0668 -0.929009,0 -0.255498,0.0667 -0.04639,0.12129 0.464504,0.12129 0.510934,0 0.719969,-0.0546 0.464505,-0.12129 z m -5.832343,-0.27555 c -0.543568,-0.0571 -1.499099,-0.0577 -2.123391,-0.001 -0.624294,0.0561 -0.179633,0.10275 0.988322,0.10379 1.16786,0.001 1.678637,-0.0449 1.135069,-0.10184 z m 15.975357,-0.76155 c 0.33504,-0.32123 0.0921,-0.37265 -1.76065,-0.37265 -1.95846,0 -2.16223,0.0492 -2.29471,0.55596 -0.14076,0.5381 -0.0843,0.55008 1.76068,0.37264 1.04832,-0.10095 2.08094,-0.35102 2.29468,-0.55595 z m -9.08133,-0.82819 c -0.40143,-0.0609 -1.058361,-0.0609 -1.459822,0 -0.401461,0.0609 -0.07304,0.11067 0.729912,0.11067 0.80292,0 1.13137,-0.0498 0.72991,-0.11067 z m 8.50064,-0.26835 c -0.54359,-0.0571 -1.49912,-0.058 -2.12342,-0.001 -0.62429,0.0561 -0.17963,0.10289 0.98833,0.10379 1.16789,0.001 1.67866,-0.0449 1.13509,-0.10185 z m -11.884815,-0.33792 c 0.272112,-0.17586 -0.3587,-0.25016 -1.99069,-0.2348 -3.453956,0.0323 -4.379235,0.44183 -1.061681,0.46983 1.459819,0.012 2.833395,-0.0935 3.052371,-0.2348 z m 6.834705,-0.44838 c -0.25549,-0.0667 -0.67351,-0.0667 -0.92897,0 -0.2555,0.0667 -0.0464,0.12129 0.46447,0.12129 0.51096,0 0.71997,-0.0546 0.4645,-0.12129 z m 5.37487,-0.0824 c 0.56115,-0.17965 0.47923,-0.22072 -0.53085,-0.26554 -0.79041,-0.0351 -1.01485,-0.11127 -0.66357,-0.22541 0.92926,-0.3022 1.59515,-0.78934 1.37703,-1.00748 -0.11606,-0.1159 -1.07065,-0.23574 -2.1212,-0.26614 -1.05052,-0.0314 -1.63437,0.006 -1.29737,0.079 0.99795,0.2182 0.17807,0.88659 -1.1097,0.90455 -0.60257,0.009 -1.57334,0.1192 -2.15725,0.2461 -0.80571,0.17525 -0.60401,0.19594 0.83662,0.0855 1.9653,-0.15017 3.03535,0.0966 2.06543,0.47629 -0.69844,0.27337 2.74307,0.24766 3.60086,-0.0283 z m -4.44589,-1.76834 c -0.18245,-0.0737 -0.48106,-0.0737 -0.66354,0 -0.18245,0.0737 -0.0332,0.13385 0.33177,0.13385 0.36497,0 0.51426,-0.0601 0.33177,-0.13385 z m 4.57859,-0.62049 c 0.21443,-0.3471 -2.51529,-0.3471 -3.05237,0 -0.28089,0.18151 0.0862,0.25862 1.2451,0.26145 0.90378,0.001 1.71707,-0.11531 1.80727,-0.26145 z m -0.99535,-0.72095 c -0.40143,-0.0609 -1.05835,-0.0609 -1.45982,0 -0.40146,0.0609 -0.073,0.11067 0.72992,0.11067 0.80291,0 1.13137,-0.0498 0.7299,-0.11067 z m -0.13265,-0.52808 c -0.32844,-0.0633 -0.86593,-0.0633 -1.19441,0 -0.32845,0.0633 -0.0596,0.11501 0.5972,0.11501 0.65692,0 0.92569,-0.0517 0.59721,-0.11501 z m 0.43086,-0.71158 0.62992,-0.34919 -0.62992,-0.16866 c -0.34647,-0.0927 -0.98825,-0.16835 -1.4262,-0.16804 -0.61104,2.6e-4 -0.70364,0.0603 -0.39814,0.2577 0.33023,0.21349 0.30754,0.25863 -0.13261,0.26552 -0.44034,0.006 -0.46297,0.0521 -0.13261,0.26554 0.5461,0.3529 1.33828,0.31399 2.08979,-0.10245 z m 0.23575,-1.40686 c -0.25362,-0.0664 -0.73154,-0.069 -1.06171,-0.006 -0.33017,0.0637 -0.12263,0.11785 0.46141,0.1207 0.58391,0.003 0.85405,-0.0489 0.6003,-0.11531 z m -0.40124,-0.7897 c -0.18244,-0.0737 -0.48109,-0.0737 -0.66356,0 -0.18246,0.0737 -0.0332,0.13385 0.33175,0.13385 0.36498,0 0.51429,-0.0601 0.33181,-0.13385 z m -72.46109,-1.87419 c -0.474443,-0.0589 -1.250811,-0.0589 -1.725285,0 -0.474442,0.0589 -0.0862,0.10723 0.862642,0.10723 0.948885,0 1.337085,-0.0483 0.862643,-0.10723 z m 73.19101,0.0764 c 0,-0.4913 -0.5829,-1.47627 -0.79579,-1.34471 -0.43734,0.27025 -0.30095,0.92732 0.19845,0.95576 0.30973,0.0189 0.24328,0.0972 -0.19907,0.23889 l -0.66357,0.21254 0.72994,0.0251 c 0.40146,0.0157 0.7299,-0.0251 0.7299,-0.089 z m -72.527422,-1.66725 c -0.40143,-0.0609 -1.058358,-0.0609 -1.459818,0 -0.401461,0.0609 -0.07304,0.11067 0.729908,0.11067 0.802922,0 1.131371,-0.0498 0.72991,-0.11067 z m 11.351005,-5.11052 c -0.440648,-0.85215 -1.316488,-1.45742 -1.734815,-1.19891 -0.51783,0.32005 -0.243586,0.69621 0.446823,0.61283 0.412371,-0.0498 0.755648,0.0601 0.824145,0.26365 0.08966,0.26646 -0.110042,0.30627 -0.842389,0.16897 -0.649123,-0.12159 -1.104159,-0.063 -1.40593,0.18183 -0.383936,0.31129 -0.413467,0.30627 -0.211608,-0.0363 0.202204,-0.34339 0.172736,-0.34804 -0.214431,-0.0338 -0.806996,0.65462 -0.479551,0.83014 1.548412,0.83014 h 1.997492 z M 34.801261,166.65253 c 0,-0.14612 -0.126658,-0.26554 -0.281206,-0.26554 -0.154551,0 -0.207218,0.1195 -0.116937,0.26554 0.09029,0.14611 0.216625,0.26553 0.281204,0.26553 0.06426,0 0.116937,-0.11949 0.116937,-0.26553 z m 97.411069,-2.89955 c -0.46748,-0.13549 -0.0429,-0.23448 1.43625,-0.33455 1.57371,-0.10663 2.18446,-0.25801 2.43754,-0.60405 0.19624,-0.26866 0.47331,-0.378 0.66179,-0.26146 0.1859,0.11501 0.2558,0.09 0.16396,-0.0589 -0.0881,-0.14268 0.10245,-0.48858 0.4235,-0.76906 l 0.58359,-0.50997 -0.92898,-0.14865 c -0.89443,-0.14328 -0.87587,-0.15674 0.49862,-0.36327 1.03799,-0.15612 1.32775,-0.28528 1.06171,-0.47345 -0.26992,-0.19091 -0.2091,-0.22445 0.23167,-0.12787 0.38442,0.0844 0.53457,0.0283 0.42094,-0.15486 -0.11291,-0.18246 -0.012,-0.22259 0.27901,-0.11097 0.27054,0.10379 0.38961,0.0683 0.29343,-0.0875 -0.089,-0.14417 0.0909,-0.2624 0.40001,-0.2624 0.3091,0 0.48836,-0.11949 0.39815,-0.26553 -0.0903,-0.14612 -0.0314,-0.26552 0.13265,-0.26552 0.16335,0 0.23702,-0.0969 0.16396,-0.21506 -0.073,-0.11815 -0.70414,-0.24452 -1.40232,-0.2809 -1.64092,-0.0849 -1.84002,-0.28904 -0.33195,-0.34035 l 1.17227,-0.0398 -1.19441,-0.18559 -1.19442,-0.18559 1.19442,-0.0586 c 0.65693,-0.0323 1.4333,-0.16113 1.72529,-0.28653 0.41271,-0.17744 0.26522,-0.24014 -0.66358,-0.28184 l -1.19441,-0.0535 0.92898,-0.19562 c 0.89972,-0.18935 0.88719,-0.1975 -0.39814,-0.25958 l -1.32711,-0.064 1.16469,-0.22885 c 1.47956,-0.29062 1.70312,-0.50639 0.53846,-0.51975 l -0.90688,-0.009 0.91386,-0.39649 c 0.50263,-0.21818 1.06999,-0.3366 1.26079,-0.26333 0.19217,0.0737 0.34688,-0.0477 0.34688,-0.27243 0,-0.22289 -0.10723,-0.33922 -0.23825,-0.25832 -0.3445,0.21287 -1.90151,-0.14013 -1.74373,-0.39554 0.073,-0.11815 -0.1975,-0.26489 -0.60149,-0.32603 -0.40395,-0.0612 0.042,-0.14581 0.99082,-0.18841 1.60738,-0.0721 1.65271,-0.0906 0.66357,-0.2674 -0.96339,-0.17242 -0.98797,-0.19564 -0.26552,-0.24861 0.46657,-0.0345 0.63141,-0.12129 0.39813,-0.21003 -0.21913,-0.0834 -0.45786,-0.23576 -0.53083,-0.33892 -0.0731,-0.1032 -0.61047,-0.31162 -1.19442,-0.46361 l -1.06171,-0.27618 1.32714,-0.0675 1.32712,-0.0675 -1.1944,-0.18558 -1.19443,-0.18559 1.34926,-0.0398 c 0.91094,-0.0283 1.34924,-0.15205 1.34924,-0.38554 0,-0.22698 -0.28089,-0.31744 -0.81841,-0.26333 -0.68003,0.0683 -0.72865,0.0401 -0.28747,-0.16647 0.3022,-0.14163 0.374,-0.25676 0.16647,-0.26741 -0.26709,-0.012 -0.28842,-0.11007 -0.0799,-0.3614 0.21129,-0.25456 0.1511,-0.42589 -0.23293,-0.6658 -0.58181,-0.36338 -0.71134,-0.98071 -0.16144,-0.76969 0.19561,0.0752 0.52419,0.0314 0.72993,-0.10035 0.28685,-0.18151 0.23482,-0.24546 -0.22321,-0.274 -0.32847,-0.022 -0.71664,-0.067 -0.86263,-0.10349 -0.14612,-0.0363 -0.355,-0.083 -0.46448,-0.10379 -0.10947,-0.022 -0.0188,-0.15299 0.19908,-0.29468 0.3091,-0.1997 0.23134,-0.25833 -0.34745,-0.26147 -0.42869,-0.003 -0.67587,-0.11695 -0.58158,-0.2696 0.0903,-0.14612 -0.11156,-0.27744 -0.44883,-0.29186 -0.60237,-0.0251 -0.60152,-0.0314 0.0508,-0.22478 0.53408,-0.15956 0.35274,-0.2348 -0.92897,-0.38563 -0.8759,-0.10319 -1.89116,-0.26396 -2.25613,-0.35763 -0.65074,-0.1671 -0.64817,-0.17211 0.13265,-0.2718 0.79685,-0.10155 1.56982,-0.55711 0.89092,-0.52498 -1.42097,0.0671 -2.9655,-0.10559 -2.6621,-0.29813 0.619,-0.39243 -1.52489,-0.56602 -3.51126,-0.28434 -1.02365,0.14521 -1.95407,0.41021 -2.06762,0.58893 -0.11351,0.17869 -0.20816,0.2207 -0.21035,0.0935 -0.001,-0.12727 -0.15331,-0.11381 -0.33585,0.0314 -0.18246,0.14357 -0.69009,0.35534 -1.12805,0.47027 l -0.79628,0.2091 1.05686,0.31472 1.05685,0.31471 -1.1393,0.18214 c -0.62665,0.10035 -1.28138,0.10245 -1.45499,0.006 -0.23951,-0.13445 -0.23888,-0.0944 0.003,0.16647 0.17494,0.18904 0.77226,0.43184 1.32716,0.53928 0.90035,0.1743 0.82877,0.19843 -0.66575,0.22571 -1.7211,0.0314 -2.13092,0.52453 -0.49951,0.60115 l 0.84696,0.0398 -0.79628,0.10215 c -1.20384,0.15455 -2.0783,0.65414 -1.66399,0.95045 0.2254,0.16115 0.13041,0.1953 -0.28653,0.10319 -0.3429,-0.0758 -0.55298,-0.0671 -0.46679,0.0188 0.0861,0.0861 0.0411,0.29594 -0.10005,0.46598 -0.18904,0.22791 -0.0314,0.2787 0.59952,0.19249 0.92813,-0.12667 0.7622,0.31932 -0.20566,0.55206 -0.47969,0.1153 -0.47331,0.13071 0.0664,0.15863 1.21856,0.0627 0.54727,0.56274 -0.79627,0.59303 -1.19112,0.0283 -1.27783,0.0609 -0.59721,0.23387 l 0.79628,0.20252 -0.74559,0.0314 c -0.86561,0.0363 -0.71392,0.56019 0.16397,0.56631 0.47277,0.003 0.50707,0.052 0.18339,0.26145 -0.30816,0.19907 -0.21819,0.26428 0.39814,0.28779 0.77664,0.0283 0.7799,0.0354 0.13266,0.23073 l -0.66355,0.2 0.79628,0.13161 c 0.53998,0.0893 0.2837,0.15675 -0.79628,0.20911 -1.53895,0.0749 -1.55682,0.0838 -0.53088,0.2674 0.80265,0.14358 0.8998,0.20754 0.39815,0.26177 -0.41874,0.0452 -0.0758,0.19532 0.92901,0.40689 l 1.59255,0.33519 -1.14701,0.0283 c -0.63089,0.0157 -1.32621,0.20815 -1.54519,0.42704 -0.35388,0.35391 -0.34441,0.39861 0.0853,0.40221 0.26583,0.001 0.65789,0.11441 0.8711,0.24922 0.28089,0.17776 0.15236,0.23857 -0.46823,0.22072 -0.47076,-0.012 -0.93384,0.0535 -1.02912,0.14895 -0.0953,0.0953 0.29468,0.18749 0.86637,0.20473 1.01351,0.0314 1.01962,0.0363 0.24328,0.23386 -0.91982,0.23417 -0.70006,0.31964 0.79628,0.31004 0.98509,-0.006 0.95634,0.012 -0.39815,0.28215 -1.25466,0.24829 -1.36657,0.31653 -0.79627,0.48544 0.56297,0.16679 0.5831,0.2044 0.13265,0.24955 -0.93126,0.0927 0.62069,0.46954 2.2561,0.54767 l 1.45985,0.0695 -1.45988,0.17901 -1.45985,0.179 1.45985,0.074 c 0.80291,0.0408 1.2294,0.13295 0.94774,0.20471 -0.28151,0.0718 -0.67836,0.29688 -0.88156,0.50005 -0.31576,0.31573 -0.29908,0.37012 0.11381,0.37356 0.39689,0.003 0.41443,0.0477 0.0981,0.24798 -0.21192,0.13415 -0.49921,0.17368 -0.63821,0.0878 -0.13924,-0.0859 -0.16741,-0.0189 -0.0633,0.15016 0.10409,0.16867 0.4066,0.30629 0.67207,0.30629 0.26551,0 0.63137,0.17932 0.81312,0.39813 0.18183,0.21915 0.44022,0.39815 0.57446,0.39815 0.13415,0 0.50042,0.23888 0.81379,0.53083 0.31349,0.29187 0.90563,0.53085 1.31605,0.53085 0.43856,0 0.71885,0.13071 0.67988,0.31704 -0.0884,0.42152 1.13898,0.68074 3.25143,0.68683 1.13994,0.003 1.50014,-0.0603 1.06172,-0.18747 z m -10.28158,-0.20691 c -0.32646,-0.063 -0.92368,-0.0646 -1.32711,-0.003 -0.40346,0.0612 -0.13639,0.11262 0.59354,0.11441 0.72994,0.001 1.06002,-0.048 0.73357,-0.11097 z M 35.3321,161.34406 c 0,-0.14612 -0.126344,-0.26552 -0.281203,-0.26552 -0.154554,0 -0.207221,0.11949 -0.116937,0.26552 0.09029,0.14611 0.216624,0.26553 0.281203,0.26553 0.06426,0 0.116937,-0.11949 0.116937,-0.26553 z m 101.79058,-27.60013 c -0.51237,-0.22415 -0.51058,-0.23293 0.0508,-0.2508 0.31987,-0.009 0.66054,-0.14642 0.75709,-0.30284 0.0966,-0.15612 0.43207,-0.38751 0.74558,-0.514 0.47354,-0.19093 0.39886,-0.23292 -0.44095,-0.24672 -0.6537,-0.009 -0.94836,-0.11815 -0.83368,-0.30378 0.0975,-0.15769 0.45558,-0.21693 0.79568,-0.13161 0.34007,0.0853 0.69241,0.0354 0.78298,-0.11127 0.0969,-0.15675 -0.1975,-0.274 -0.71366,-0.28496 -0.73183,-0.0157 -0.78976,-0.0567 -0.34745,-0.24672 0.49165,-0.21131 0.48184,-0.23231 -0.13265,-0.28435 -0.47774,-0.0404 -0.36623,-0.10977 0.39813,-0.24641 l 1.06172,-0.18998 -1.45985,-0.0824 c -1.22758,-0.0693 -1.3015,-0.0987 -0.4645,-0.18653 1.11823,-0.11695 1.29529,-0.49945 0.39813,-0.86007 l -0.59721,-0.24013 0.58156,-0.0157 c 0.6576,-0.0188 1.1362,-0.54769 0.49582,-0.54769 -0.68074,0 -0.46794,-0.4597 0.30222,-0.653 0.57595,-0.14447 0.64088,-0.23199 0.33178,-0.44714 -0.29376,-0.2044 -0.30598,-0.29906 -0.0508,-0.40256 0.46933,-0.19029 0.13355,-0.6304 -0.34196,-0.44797 -0.21412,0.0821 -0.38962,0.0251 -0.38962,-0.12668 0,-0.15203 0.32845,-0.32079 0.72992,-0.37531 l 0.7299,-0.099 -0.74589,-0.31613 c -0.79885,-0.33858 -0.74496,-0.84798 0.0897,-0.84798 0.33667,0 0.45664,-0.13101 0.35732,-0.38974 -0.0821,-0.21441 -0.22791,-0.37939 -0.32346,-0.36672 -0.0956,0.012 -0.65167,-0.009 -1.23558,-0.0517 -1.0061,-0.0709 -0.98522,-0.0841 0.39813,-0.25363 l 1.45983,-0.179 -1.99069,-0.0866 -1.99069,-0.0866 1.45985,-0.17901 c 0.80291,-0.0984 1.18325,-0.19844 0.84518,-0.22227 -0.33807,-0.0251 -0.87289,-0.18151 -1.18849,-0.35039 -0.56084,-0.30001 -0.56193,-0.31161 -0.0489,-0.51218 0.28872,-0.11291 1.12211,-0.21726 1.85206,-0.23168 1.03619,-0.022 1.22529,-0.0858 0.8626,-0.29719 -0.2555,-0.14896 -0.46447,-0.44378 -0.46447,-0.65549 0,-0.2116 -0.11561,-0.38497 -0.25706,-0.38497 -0.44921,0 0.0426,-0.83225 0.61761,-1.04494 0.52386,-0.19373 0.51179,-0.22728 -0.23606,-0.6566 -0.63141,-0.3624 -0.66941,-0.4279 -0.19124,-0.32931 0.32834,0.0678 0.66386,0.0157 0.7456,-0.11755 0.15769,-0.25518 -0.17494,-0.32908 -1.13504,-0.25206 -0.32384,0.0251 -0.80161,-0.074 -1.06172,-0.22257 -0.41349,-0.23576 -0.35622,-0.31192 0.45611,-0.60549 l 0.92898,-0.33578 -0.79628,-0.17713 -0.79627,-0.17743 0.80957,-0.0314 c 0.44521,-0.0188 0.95286,0.0881 1.12803,0.23418 0.22447,0.18715 0.24641,0.17744 0.074,-0.0323 -0.33612,-0.40905 -0.0577,-1.02572 0.47216,-1.04615 0.28184,-0.009 0.20126,-0.1195 -0.22759,-0.3066 l -0.66358,-0.28968 0.79628,-0.19279 c 0.95979,-0.23262 0.39478,-0.3209 -1.65889,-0.25927 -0.84089,0.0251 -1.39348,-0.0712 -1.39348,-0.24263 0,-0.17054 0.63151,-0.28465 1.57688,-0.28465 0.86728,0 1.65069,-0.1195 1.74092,-0.26554 0.0903,-0.14611 -0.11187,-0.27964 -0.44883,-0.29688 -0.51372,-0.0251 -0.48403,-0.0643 0.1834,-0.23386 0.66649,-0.16961 0.53666,-0.21506 -0.79628,-0.27871 -1.17598,-0.0561 -1.33815,-0.10274 -0.61996,-0.17869 1.32256,-0.13983 1.56402,-0.781 0.258,-0.68539 l -0.96522,0.0706 0.92898,-0.31688 0.92901,-0.31689 -1.45986,-0.16552 c -0.80291,-0.0909 -1.18325,-0.18497 -0.84518,-0.20879 0.33806,-0.0251 0.87287,-0.18151 1.1885,-0.35036 0.56118,-0.30032 0.56228,-0.31193 0.0489,-0.5189 -0.38632,-0.1558 -0.2646,-0.20094 0.46102,-0.17022 0.54228,0.022 1.06984,-0.0423 1.17231,-0.14447 0.10245,-0.1026 -0.0426,-0.19469 -0.32239,-0.20503 -0.48615,-0.0188 -0.48517,-0.0283 0.022,-0.24672 0.37622,-0.16177 -0.009,-0.24798 -1.32711,-0.29594 -1.75647,-0.064 -1.78075,-0.073 -0.4441,-0.16584 1.19714,-0.0832 1.36508,-0.15706 1.09554,-0.48175 -0.24264,-0.29218 -0.24358,-0.38356 -0.006,-0.38356 0.74035,0 -0.0947,-0.53262 -0.86148,-0.54952 -0.46582,-0.009 -1.08586,-0.12728 -1.3778,-0.2602 -0.37047,-0.16867 0.003,-0.22321 1.23626,-0.18026 0.97189,0.0335 1.71694,-0.0188 1.65565,-0.11785 -0.0615,-0.0984 0.099,-0.23386 0.35629,-0.30095 0.28529,-0.0743 0.17713,-0.13385 -0.27776,-0.15268 -0.41005,-0.0157 -0.67391,-0.14671 -0.58636,-0.2884 0.0875,-0.14163 -0.11441,-0.31623 -0.44883,-0.3878 -0.33443,-0.0715 -0.84693,-0.18057 -1.13889,-0.24234 -0.29185,-0.0618 0.14896,-0.12607 0.97968,-0.14297 1.85695,-0.038 2.20957,-0.44065 0.68457,-0.78195 -1.02547,-0.22948 -1.05758,-0.25927 -0.33713,-0.31193 0.64034,-0.0467 0.51041,-0.12443 -0.66354,-0.3968 l -1.45985,-0.33853 1.0617,-0.0649 1.06169,-0.0646 -0.92899,-0.19562 c -0.78507,-0.16521 -0.66175,-0.20157 0.79628,-0.23449 1.08188,-0.0251 1.59058,-0.12443 1.36412,-0.26773 -0.19876,-0.12563 -0.58504,-0.17023 -0.85867,-0.0987 -0.27367,0.0715 -0.70834,0.0363 -0.96596,-0.0781 -0.37187,-0.16521 -0.27683,-0.24609 0.46051,-0.39312 l 0.92899,-0.18497 -1.19442,-0.0727 -1.19441,-0.0727 1.06171,-0.18998 c 0.94662,-0.1696 0.97541,-0.19531 0.26553,-0.237 l -0.79627,-0.047 0.66353,-0.37933 0.66357,-0.37934 -0.79627,-0.0283 c -0.68778,-0.0251 -0.72392,-0.0592 -0.26552,-0.25613 0.29185,-0.12533 0.91198,-0.23637 1.37783,-0.24672 0.76411,-0.0157 1.60314,-0.54953 0.86555,-0.54953 -0.17022,0 -0.24075,-0.179312 -0.15673,-0.398132 0.12263,-0.31933 -0.12129,-0.40729 -1.23238,-0.4445 -1.2906,-0.0432 -1.31001,-0.0533 -0.28435,-0.14672 0.85121,-0.0775 1.14338,-0.232615 1.28878,-0.683539 0.39472,-1.224511 0.3022,-1.371075 -1.0624,-1.681552 l -1.32712,-0.301906 1.14372,-0.03141 c 1.55203,-0.04038 1.17229,-0.55464 -0.42946,-0.58159 -1.34475,-0.02198 -1.31062,-0.06236 0.44022,-0.512943 0.9539,-0.245465 1.13087,-0.387378 1.01854,-0.81687 -0.0799,-0.305347 -0.009,-0.504225 0.17274,-0.482061 0.87988,0.10753 1.06293,-0.06805 0.4413,-0.423286 -0.59723,-0.341419 -0.61049,-0.382367 -0.13265,-0.409676 0.37516,-0.02198 0.41763,-0.07493 0.14477,-0.182442 -1.07327,-0.422508 -1.07644,-1.048171 -0.006,-1.467793 0.21631,-0.08495 -0.20377,-0.176176 -0.93372,-0.202512 -1.29622,-0.04696 -1.30563,-0.05324 -0.40471,-0.265221 0.50735,-0.119495 1.04484,-0.143872 1.19441,-0.05459 0.14955,0.08929 0.10812,-0.03978 -0.0921,-0.286846 -0.23449,-0.289045 -0.80183,-0.464982 -1.59254,-0.493726 l -1.22828,-0.04457 1.05827,-0.107829 c 0.58204,-0.05922 1.14027,-0.240455 1.24053,-0.402812 0.13265,-0.214432 0.28433,-0.210035 0.55642,0.0157 0.29342,0.243266 0.37412,0.225409 0.37412,-0.08345 0,-0.268347 -0.30346,-0.405563 -0.95111,-0.430449 -0.92745,-0.03574 -0.91976,-0.04322 0.30973,-0.310058 0.69341,-0.150467 1.26078,-0.372766 1.26078,-0.494279 0,-0.121588 -0.80624,-0.225724 -1.79162,-0.231676 -1.77205,-0.009 -1.78331,-0.0157 -1.0303,-0.423061 0.41874,-0.226965 1.04567,-0.35811 1.39318,-0.291543 0.3475,0.0664 0.83623,-0.02827 1.08607,-0.211306 0.39292,-0.287475 0.25862,-0.367666 -0.99504,-0.595169 l -1.44925,-0.263023 1.27643,-0.0317 c 0.79024,-0.01884 1.21293,-0.134151 1.10972,-0.301264 -0.0915,-0.148359 -0.24796,-0.222897 -0.34743,-0.165842 -0.0995,0.05713 -0.41962,0.006 -0.71161,-0.109773 -0.43447,-0.174935 -0.36221,-0.225095 0.39814,-0.276826 0.67731,-0.04606 0.49754,-0.11097 -0.66354,-0.239498 -1.30693,-0.14447 -1.40169,-0.184341 -0.52836,-0.220713 0.70636,-0.02827 1.1656,-0.206895 1.36567,-0.527316 0.27369,-0.437987 0.18778,-0.488582 -0.92471,-0.546175 -1.53988,-0.07956 -1.80178,-0.286847 -0.42134,-0.333209 l 1.03958,-0.03485 -0.92897,-0.195618 -0.92902,-0.195633 1.19442,-0.07837 1.19441,-0.07807 -1.45981,-0.179017 -1.45985,-0.179003 1.65891,-0.04322 c 1.38821,-0.03604 1.65823,-0.119195 1.65484,-0.507724 -0.003,-0.262395 -0.089,-0.348957 -0.19906,-0.199073 -0.11187,0.152037 -0.70505,0.197502 -1.38944,0.106333 -1.18422,-0.15769 -1.18593,-0.159575 -0.19907,-0.199072 0.98531,-0.03948 1.40589,-0.626232 0.66357,-0.925776 -0.18246,-0.07373 -0.0561,-0.143274 0.28121,-0.154864 0.33716,-0.01196 0.53909,-0.140432 0.44883,-0.286533 -0.0906,-0.146713 0.10035,-0.265535 0.42673,-0.265535 0.3249,0 0.51609,-0.07463 0.42491,-0.165841 -0.0912,-0.09123 -1.21596,-0.173364 -2.49944,-0.182756 -2.25796,-0.0157 -2.27123,-0.01884 -0.40922,-0.110671 1.05835,-0.05175 1.92432,-0.20848 1.92432,-0.348224 0,-0.139834 -0.20911,-0.268048 -0.46452,-0.284977 -0.44237,-0.02827 -0.44237,-0.03664 0,-0.152352 0.95645,-0.249862 0.50122,-0.877529 -0.66353,-0.914873 -0.79144,-0.02513 -0.93005,-0.07717 -0.4645,-0.173364 l 0.66356,-0.136993 -0.66356,-0.198444 c -0.53145,-0.158947 -0.39927,-0.212234 0.66356,-0.268033 l 1.32712,-0.06954 -1.45985,-0.179002 -1.45982,-0.179003 1.19442,-0.06954 c 0.65692,-0.03829 1.48559,-0.151095 1.8415,-0.250475 l 0.64708,-0.180572 -0.91253,-0.747805 c -0.74174,-0.607942 -0.80245,-0.723234 -0.32437,-0.616362 0.32348,0.07239 0.56683,0.05429 0.54081,-0.04053 -0.0251,-0.09467 0.10319,-0.443401 0.28716,-0.775293 0.27838,-0.502416 0.26585,-0.672295 -0.0761,-1.014313 -0.22604,-0.226037 -0.41082,-0.282778 -0.41082,-0.126374 0,0.363285 -2.82874,0.380842 -3.0524,0.01884 -0.0984,-0.158947 0.2414,-0.266791 0.84698,-0.268974 0.55604,-0.0015 1.30962,-0.09153 1.67456,-0.199073 0.54962,-0.161759 0.43563,-0.218186 -0.66354,-0.328169 l -1.32715,-0.132655 1.14836,-0.380947 c 0.99775,-0.331025 1.17995,-0.331025 1.38941,0 0.14731,0.232603 0.24263,0.259254 0.24515,0.06865 0.001,-0.171794 0.21317,-0.360831 0.46855,-0.420145 0.2555,-0.05922 -0.13265,-0.194048 -0.86265,-0.299379 -0.7299,-0.105287 -1.62572,-0.267105 -1.99068,-0.359171 -0.58702,-0.14821 -0.54109,-0.186855 0.39813,-0.335348 0.80355,-0.126972 0.94914,-0.218515 0.59875,-0.376534 -0.62106,-0.279953 -0.32917,-0.68405 0.49429,-0.68405 0.36496,0 0.59532,-0.110372 0.51193,-0.245465 -0.0834,-0.134749 0.0589,-0.300336 0.31613,-0.367352 0.25738,-0.06715 -4.04116,-0.135796 -9.55205,-0.152681 -6.52347,-0.01884 -10.01981,0.06177 -10.01981,0.234503 0,0.146115 0.0897,0.251417 0.19907,0.233859 0.94731,-0.149555 1.20012,0.460345 0.26553,0.640379 -0.47244,0.09093 -0.43083,0.123533 0.19906,0.155179 0.43796,0.02198 0.97544,0.15612 1.19442,0.29751 0.28402,0.183698 -0.0188,0.259567 -1.06172,0.265535 -0.9226,0.006 -1.32693,0.09213 -1.09866,0.236999 0.19876,0.125776 0.61668,0.173365 0.92898,0.105586 0.46139,-0.100052 0.49321,-0.06999 0.16959,0.161131 -0.30472,0.217573 -0.0555,0.295625 1.06172,0.331713 l 1.45981,0.04741 -1.45981,0.179002 c -0.80293,0.09841 -1.34041,0.212548 -1.19442,0.253616 0.14612,0.04113 -0.0927,0.165841 -0.53087,0.277454 l -0.79628,0.202513 0.71428,0.03141 c 0.39283,0.01884 0.80059,0.171166 0.90615,0.341928 0.12667,0.205025 0.0504,0.256128 -0.22384,0.150796 -0.22885,-0.08779 -0.63649,0.006 -0.90615,0.21192 -0.43802,0.331863 -0.32043,0.372811 1.10225,0.383968 0.8759,0.006 1.7717,0.128168 1.99068,0.269916 0.28841,0.186211 0.0549,0.258327 -0.84696,0.261453 -0.6848,0.0015 -1.31891,0.123532 -1.40914,0.269602 -0.0903,0.146116 -0.0414,0.265535 0.10873,0.265535 0.15017,0 0.20408,0.179003 0.12009,0.398146 -0.10035,0.261138 0.0157,0.408689 0.3401,0.428909 0.44472,0.02827 0.44752,0.04262 0.0283,0.152052 -0.74865,0.195618 -0.53338,0.613326 0.31609,0.613326 0.42934,0 0.84603,0.106034 0.926,0.235115 0.17242,0.27901 -0.67915,0.536768 -1.97203,0.597173 -0.92029,0.04292 -0.92152,0.04487 -0.13266,0.179945 l 0.79628,0.136693 -0.79628,0.174606 c -0.73671,0.161459 -0.68709,0.196874 0.66358,0.47391 1.01005,0.207223 1.15945,0.279638 0.48494,0.235758 -0.83514,-0.05459 -0.9411,-7.92e-4 -0.73925,0.376505 0.12952,0.24201 0.16019,0.515696 0.068,0.607867 -0.0921,0.09213 0.24044,0.179002 0.73925,0.193105 0.84123,0.02513 0.81079,0.0501 -0.42025,0.366604 l -1.3271,0.341105 1.59255,0.07149 1.59255,0.07149 -1.19442,0.185583 c -0.79628,0.123832 -0.95111,0.199073 -0.4645,0.225723 0.90655,0.0495 0.97478,0.570717 0.0746,0.570717 -0.50209,0 -0.61562,0.103193 -0.48573,0.441681 0.0975,0.254558 0.0604,0.374411 -0.0875,0.283078 -0.14133,-0.08749 -0.42406,-0.05549 -0.62846,0.07089 -0.3949,0.243894 0.074,0.412204 1.7241,0.618111 0.47814,0.05952 0.21286,0.127571 -0.66358,0.16991 -0.80288,0.03888 -1.22093,0.132655 -0.92897,0.208165 l 0.53084,0.137591 -0.53084,0.210992 c -0.48504,0.192792 -0.4736,0.214731 0.13265,0.256113 l 0.66358,0.04517 -0.66358,0.212547 c -0.54532,0.174621 -0.42708,0.224153 0.66358,0.278696 0.79147,0.03948 1.04158,0.110073 0.61965,0.174621 -1.05451,0.161444 -1.17,0.792641 -0.12757,0.697524 0.77609,-0.07089 0.78823,-0.05982 0.17148,0.156121 -0.60338,0.211291 -0.56723,0.23857 0.39815,0.298751 0.93258,0.05833 0.96486,0.08001 0.26552,0.179646 -1.20448,0.171479 -1.45787,0.596231 -0.38484,0.645075 0.74148,0.0338 0.66319,0.07403 -0.41144,0.210978 l -1.32711,0.169281 1.06171,0.19656 c 3.42741,0.634293 3.36873,0.586929 0.99998,0.806939 -1.20183,0.111568 -2.25398,0.314335 -2.33812,0.45052 -0.0841,0.136095 -0.0251,0.247663 0.12816,0.247663 0.15455,0 0.295,0.209108 0.31193,0.464503 0.0283,0.442369 0.0366,0.442369 0.15237,0 0.099,-0.379735 0.42052,-0.463755 1.7608,-0.46042 1.15645,0.003 1.52217,0.07986 1.24131,0.261452 -0.21913,0.14133 -0.92566,0.259254 -1.57042,0.261452 -1.30746,0.003 -1.29489,0.224467 0.0314,0.538518 l 0.87612,0.207537 -0.79627,0.04576 c -0.69273,0.03978 -0.72725,0.07553 -0.26552,0.274 0.41183,0.177118 0.26302,0.239198 -0.66358,0.27744 -0.65694,0.02827 -0.95554,0.109773 -0.66355,0.183399 0.29186,0.07373 0.76972,0.311299 1.06168,0.527884 0.50865,0.377582 0.50005,0.388829 -0.20534,0.269289 -0.40493,-0.06865 -0.80016,-0.02198 -0.87828,0.104988 -0.0781,0.126374 0.43234,0.246093 1.13438,0.265834 0.70204,0.01884 1.01431,0.08719 0.69392,0.149256 -0.37504,0.07268 -0.53037,0.248919 -0.4361,0.494728 0.0912,0.237628 -0.0188,0.38159 -0.29594,0.38159 -0.97205,0 -0.0389,0.533567 0.99829,0.570717 l 1.1124,0.03978 -1.19441,0.165214 -1.19441,0.165512 1.32711,0.22541 c 1.05096,0.178688 1.21667,0.270231 0.79627,0.439706 -0.29186,0.11785 -0.91903,0.222583 -1.39348,0.232932 -0.93318,0.01884 -1.22632,0.680939 -0.39813,0.897375 0.25549,0.0667 0.0761,0.135049 -0.39814,0.152038 -0.92789,0.0332 -1.22535,0.561654 -0.31613,0.561654 0.30065,0 0.47271,0.119495 0.3825,0.265535 -0.0903,0.146115 -0.41579,0.265535 -0.72349,0.265535 -1.2942,0 -0.0987,0.311613 1.95521,0.509893 l 2.21878,0.214118 -1.79162,0.03604 c -1.2395,0.02512 -1.79037,0.138488 -1.78754,0.36795 0.006,0.483616 0.32168,0.869947 0.92494,1.131683 0.43493,0.188723 0.31505,0.26208 -0.66358,0.405275 -0.65694,0.0962 -1.01525,0.19468 -0.79628,0.21882 0.35391,0.0392 0.35391,0.0724 0,0.30128 -0.29908,0.19342 -0.16709,0.25894 0.53084,0.26426 0.51096,0.003 1.40677,0.0894 1.99069,0.18967 l 1.0617,0.182772 -1.85797,0.44823 c -1.55547,0.37526 -1.70673,0.45632 -0.92898,0.49802 l 0.92898,0.0498 -0.92898,0.35776 c -0.51094,0.19688 -0.80954,0.36867 -0.66358,0.38203 0.14612,0.012 0.0861,0.14013 -0.13265,0.28151 -0.3171,0.20504 -0.26302,0.26209 0.26553,0.27995 0.60919,0.022 0.62006,0.0414 0.13266,0.2508 -0.64555,0.27744 -0.71591,0.25957 1.72525,0.43911 1.09488,0.0806 2.04047,0.19373 2.10128,0.25173 0.0609,0.058 -0.95443,0.12099 -2.25611,0.14043 -1.74498,0.0251 -2.12265,0.0862 -1.43772,0.23042 0.66043,0.13894 0.74997,0.20566 0.30973,0.23042 -0.37073,0.022 -0.57275,0.16804 -0.50331,0.36673 0.064,0.18245 0.31452,0.29625 0.55716,0.25267 0.24892,-0.0446 0.41043,0.0712 0.37059,0.26553 -0.0464,0.22697 0.33666,0.39063 1.12387,0.47997 l 1.19442,0.1355 -0.89582,0.19624 c -0.49268,0.10783 -1.32876,0.20377 -1.85798,0.21318 -0.84361,0.0157 -0.88857,0.0464 -0.36494,0.25676 0.32845,0.13205 0.59722,0.36334 0.59722,0.514 0,0.1508 0.38817,0.28716 0.8626,0.30315 0.77533,0.0251 0.74367,0.0523 -0.31287,0.25957 -0.64645,0.12697 -1.29742,0.35262 -1.44656,0.50178 -0.28904,0.28905 -0.0956,0.32306 1.82567,0.32209 l 1.06171,-5.4e-4 -1.00415,0.17399 c -1.2204,0.21129 -1.36934,0.63978 -0.30786,0.88584 l 0.78123,0.18121 -0.79627,-0.009 c -1.28352,-0.0157 -1.56051,0.0338 -1.34953,0.24484 0.10948,0.10947 0.93547,0.18151 1.83585,0.16052 l 1.6371,-0.0386 -1.32715,0.19625 -1.3271,0.19594 1.1944,0.0815 1.19442,0.0815 -1.19442,0.18558 c -0.76505,0.11875 -0.93766,0.20002 -0.48017,0.22573 0.97693,0.0546 1.23443,0.56591 0.29687,0.58939 -0.41007,0.009 -0.97807,0.10978 -1.26222,0.2207 -0.47877,0.18747 -0.46905,0.21506 0.13265,0.37945 0.53592,0.14642 0.57981,0.2229 0.25111,0.43868 -0.33873,0.22226 -0.34071,0.26208 -0.012,0.26553 0.51108,0.006 0.0446,0.444 -0.65028,0.61105 -0.29186,0.0703 0.18589,0.15111 1.06167,0.17933 0.87589,0.0283 1.43828,0.11352 1.24968,0.18936 -0.27336,0.10977 -0.27619,0.21787 -0.0157,0.53311 0.28404,0.34234 0.16083,0.38526 -0.91762,0.31896 -0.71639,-0.0443 -1.38138,0.0589 -1.56468,0.24232 -0.24797,0.24798 0.0609,0.32912 1.39318,0.3652 1.26424,0.0341 1.42238,0.0727 0.60459,0.14702 -0.60905,0.0552 -1.22638,0.24358 -1.37181,0.41809 -0.20096,0.2414 0.12876,0.3088 1.37279,0.28121 l 1.63725,-0.0366 -1.45982,0.19248 c -0.80291,0.10558 -1.16124,0.22132 -0.79627,0.25644 0.38045,0.0369 0.50917,0.12577 0.30157,0.20816 -0.30534,0.12159 -0.30534,0.17963 0,0.37311 0.26396,0.1671 0.19625,0.23042 -0.2511,0.23325 -0.36606,0.003 -0.54237,0.11815 -0.43779,0.28748 0.0978,0.15863 -0.0935,0.35348 -0.43463,0.44271 -0.57439,0.15017 -0.57978,0.17116 -0.093,0.36162 0.28402,0.11127 0.99439,0.22227 1.57831,0.24672 l 1.0617,0.0449 -1.45985,0.4788 c -1.61515,0.52974 -1.5784,0.57046 0.53088,0.58874 1.37329,0.012 1.38981,0.0188 0.27869,0.12787 -0.84772,0.0827 -1.07251,0.18401 -0.79627,0.3588 0.31888,0.20188 0.30535,0.2442 -0.0796,0.24764 -0.68938,0.006 -0.56374,0.53157 0.13265,0.55515 0.46817,0.0157 0.39647,0.0944 -0.33177,0.36402 l -0.92901,0.34384 1.32714,0.18778 c 1.96041,0.27714 2.05753,0.39812 0.28215,0.35147 -1.0156,-0.0283 -1.61312,0.0709 -1.68101,0.27461 -0.058,0.174 0.11351,0.32451 0.38123,0.33475 0.44156,0.0157 0.43747,0.0398 -0.0443,0.24672 -0.41376,0.17777 -0.26742,0.24109 0.66356,0.28654 l 1.19441,0.0586 -1.0617,0.15926 c -0.58395,0.0875 -1.09156,0.30848 -1.12805,0.49099 -0.0715,0.35683 0.17054,0.41683 1.35707,0.33676 0.4647,-0.0314 0.69418,0.0552 0.59068,0.22258 -0.10438,0.16898 0.31545,0.31193 1.09813,0.37344 1.21343,0.0956 1.19961,0.10184 -0.32528,0.15172 -1.04065,0.0338 -1.46425,0.13325 -1.22226,0.28653 0.2975,0.18843 0.27149,0.2599 -0.13265,0.36329 -0.27651,0.0709 0.33306,0.15675 1.35495,0.19092 l 1.85798,0.0621 -1.28735,0.216 c -2.07403,0.34801 -2.33954,0.60021 -0.83607,0.7941 l 1.32715,0.17117 -1.43775,0.0417 c -1.65543,0.048 -1.65301,0.22478 0.006,0.55106 l 1.16471,0.22885 -1.03959,0.0283 c -0.57178,0.0157 -0.97248,0.0963 -0.89048,0.17806 0.0821,0.0821 -0.13699,0.45786 -0.48678,0.83525 -0.4884,0.52694 -0.56674,0.76943 -0.3378,1.04531 0.23042,0.27744 0.1975,0.35917 -0.14477,0.35917 -0.40447,0 -0.40152,0.0561 0.0338,0.6464 0.30378,0.41162 0.81433,0.68574 1.40586,0.75466 0.79782,0.0932 0.76036,0.11068 -0.26553,0.12638 -0.65692,0.009 -1.31384,0.0404 -1.45984,0.068 -0.48403,0.0912 1.04393,0.4741 2.12339,0.53204 l 1.06172,0.0571 -0.92899,0.1975 c -1.24824,0.26552 -2.53155,0.97233 -2.07586,1.14359 0.64382,0.24202 14.44142,0.17148 13.88726,-0.0709 z m -13.2018,-3.11146 c 0.33017,-0.0637 0.80794,-0.0612 1.0617,0.006 0.25393,0.0664 -0.0157,0.11845 -0.6003,0.11531 -0.58392,-0.003 -0.79157,-0.0574 -0.4614,-0.12069 z m -0.009,-6.90491 c 0.47122,-0.0586 1.30731,-0.0595 1.858,-0.002 0.55068,0.0574 0.1652,0.10529 -0.85673,0.10663 -1.02186,0.001 -1.47244,-0.0458 -1.00127,-0.10439 z m 13.94443,-24.152602 c 0.40344,-0.0612 1.00064,-0.0592 1.32712,0.003 0.32643,0.063 -0.003,0.11291 -0.73359,0.11097 -0.7299,-0.002 -0.997,-0.0535 -0.59353,-0.11441 z m -14.86384,-0.26554 c 0.40347,-0.0612 1.00067,-0.0595 1.32715,0.003 0.32644,0.063 -0.003,0.11292 -0.73358,0.11097 -0.72991,-0.001 -0.99703,-0.0535 -0.59357,-0.11441 z m 15.85554,-1.35787 0.92899,-0.136095 -0.92899,-0.172736 -0.92901,-0.172736 0.75841,-0.215374 c 0.53733,-0.152681 0.82239,-0.111867 0.97785,0.139834 0.33506,0.542152 0.0443,0.782861 -0.88929,0.73605 l -0.84697,-0.04262 z m 1.06128,-23.787491 c 0.70981,-0.392807 0.95781,-0.355059 0.67488,0.102893 -0.0963,0.155807 -0.43664,0.27901 -0.75649,0.273686 -0.56085,-0.009 -0.55793,-0.02198 0.0815,-0.376415 z m -0.84712,54.923683 c -0.0818,-0.0818 -0.23011,0.0655 -0.3298,0.32739 -0.14387,0.37826 -0.11351,0.40877 0.14866,0.14866 0.1815,-0.17994 0.26302,-0.39423 0.1812,-0.47594 z m -15.70954,-3.47548 c 0.0335,-0.22823 -0.012,-0.34065 -0.10379,-0.25017 -0.0906,0.0906 -0.19218,0.35136 -0.22572,0.57949 -0.0335,0.22822 0.012,0.34068 0.10379,0.25016 0.0906,-0.0906 0.19216,-0.35136 0.22571,-0.57948 z m 16.20756,-17.1377 c -0.0847,-0.21161 -0.14761,-0.14896 -0.1605,0.1605 -0.012,0.27964 0.0512,0.43655 0.13953,0.34836 0.0881,-0.0881 0.0975,-0.31713 0.022,-0.50874 z m 0.26554,-7.43189 c -0.0846,-0.21162 -0.14761,-0.14895 -0.16051,0.16051 -0.012,0.27995 0.0511,0.43656 0.13954,0.34835 0.0881,-0.0881 0.0975,-0.31713 0.022,-0.50871 z m 96.63254,157.79047 c 0.32849,-0.0633 0.86597,-0.0633 1.19442,0 0.32849,0.0633 0.0595,0.11501 -0.5972,0.11501 -0.65693,0 -0.92565,-0.0517 -0.59722,-0.11501 z M 41.917741,255.91946 c 0.191544,-0.0769 0.42052,-0.0671 0.508707,0.022 0.08809,0.0881 -0.06866,0.15079 -0.348356,0.13953 -0.309105,-0.012 -0.372117,-0.0755 -0.160508,-0.1605 z m 193.279349,-2.22663 c 0,-0.19091 0.50228,-0.22351 1.52619,-0.0995 2.05132,0.24861 2.09029,0.38402 0.11068,0.38402 -0.9875,0 -1.63678,-0.11292 -1.63678,-0.28467 z m -0.26552,-8.32039 c 0,-0.29406 0.18904,-0.32751 0.86263,-0.15204 0.47445,0.12353 1.10151,0.27932 1.3935,0.34596 0.29185,0.0667 -0.0963,0.1352 -0.86265,0.15206 -1.04099,0.022 -1.39348,-0.0646 -1.39348,-0.34595 z m -191.178476,-0.0803 c 0.471213,-0.0586 1.307302,-0.0595 1.857986,-10e-4 0.550684,0.0574 0.165212,0.10529 -0.856717,0.10663 -1.021897,0.001 -1.472451,-0.0458 -1.001269,-0.10439 z m 3.738482,-2.11314 c 0.191546,-0.0769 0.420522,-0.0671 0.508707,0.022 0.08809,0.0881 -0.06866,0.1508 -0.348354,0.13954 -0.309106,-0.012 -0.372118,-0.0755 -0.16051,-0.16051 z m 8.759034,-4.24683 c 0.191545,-0.0767 0.420522,-0.067 0.508707,0.022 0.08809,0.0881 -0.06866,0.15078 -0.348354,0.13953 -0.309107,-0.012 -0.372119,-0.0755 -0.16051,-0.16051 z m 3.234854,-3.00377 c 0,-0.14925 0.727213,-0.26365 1.658919,-0.26145 1.169021,0.003 1.541326,0.0799 1.260749,0.26145 -0.525981,0.33993 -2.919668,0.33993 -2.919668,0 z m 0.930859,-1.32407 c -0.09311,-0.15048 0.01256,-0.195 0.249854,-0.10439 0.459834,0.17651 0.543977,0.3667 0.162078,0.3667 -0.137307,0 -0.322743,-0.11815 -0.411932,-0.2624 z m -0.06332,-0.71784 c 0.258319,-0.0674 0.616581,-0.063 0.796276,0.009 0.179632,0.0727 -0.03166,0.12787 -0.469552,0.12218 -0.437951,-0.006 -0.58498,-0.0649 -0.326724,-0.13235 z m -5.711711,-0.79966 c 0.328479,-0.0633 0.865966,-0.0633 1.194413,0 0.328479,0.0633 0.05988,0.11501 -0.597206,0.11501 -0.656928,0 -0.925655,-0.0517 -0.597207,-0.11501 z m 6.171136,-2.06878 c 0.231673,-0.27901 0.776966,-0.38482 1.824131,-0.35353 l 1.493706,0.0446 -1.592552,0.16239 c -1.13303,0.11531 -1.401069,0.20691 -0.929009,0.31739 0.579809,0.13534 0.550559,0.15956 -0.231672,0.19122 -0.767372,0.0314 -0.84797,-0.022 -0.564729,-0.36199 z m 0.729941,-0.85559 c 0.474443,-0.0589 1.250811,-0.0589 1.725254,0 0.474442,0.0589 0.0862,0.10693 -0.862643,0.10693 -0.948885,0 -1.337053,-0.0483 -0.862611,-0.10693 z m -0.39309,-0.52278 c 0.258319,-0.0675 0.616581,-0.0627 0.796276,0.009 0.179632,0.0727 -0.03166,0.12787 -0.469552,0.12219 -0.437953,-0.006 -0.584981,-0.0649 -0.326724,-0.13236 z m -8.43231,-1.38994 c 1.171309,-0.15551 1.233632,-0.19343 0.53084,-0.32316 -0.55106,-0.10155 -0.319483,-0.15894 0.752042,-0.18652 1.133533,-0.0283 1.518944,0.0492 1.438625,0.29217 -0.07336,0.22195 -0.762544,0.34209 -2.079189,0.36291 -1.728858,0.0283 -1.807326,0.009 -0.642318,-0.14522 z m 8.549431,-1.08037 c 0.09812,-0.37496 0.34406,-0.52024 0.837783,-0.4947 0.625201,0.0323 0.635954,0.0483 0.101877,0.15111 -0.652694,0.12578 -0.789942,0.48695 -0.265529,0.69859 0.182454,0.0737 0.0743,0.14327 -0.24045,0.15486 -0.445632,0.0157 -0.541624,-0.0966 -0.433532,-0.50989 z m 1.076978,-1.51948 c 0.477076,-0.0589 1.193725,-0.058 1.592552,0.003 0.398859,0.0606 0.0094,0.10873 -0.867376,0.10753 -0.875903,-0.001 -1.20222,-0.0512 -0.725176,-0.11007 z m -10.223615,-0.53185 c 0.547455,-0.0574 1.443264,-0.0574 1.990688,0 0.547455,0.0574 0.09969,0.10409 -0.995344,0.10409 -1.094879,0 -1.542769,-0.0467 -0.995344,-0.10409 z m 9.422606,0.0189 c 0.182454,-0.0737 0.481089,-0.0737 0.663543,0 0.182453,0.0737 0.03323,0.13385 -0.331772,0.13385 -0.364971,0 -0.514256,-0.0603 -0.331771,-0.13385 z M 32.362184,224.6005 c 0.191546,-0.0769 0.420522,-0.0671 0.508707,0.022 0.08809,0.0881 -0.06866,0.15078 -0.348354,0.13954 -0.309106,-0.012 -0.372118,-0.0755 -0.160196,-0.16052 z m 21.089772,-1.59516 c 0.258319,-0.0675 0.616549,-0.063 0.796275,0.009 0.179633,0.0727 -0.03166,0.12787 -0.469551,0.12233 -0.437952,-0.006 -0.584981,-0.0649 -0.326724,-0.13235 z m 8.621252,0.009 c 0.182454,-0.0737 0.481088,-0.0737 0.663574,0 0.182454,0.0737 0.03323,0.13385 -0.331803,0.13385 -0.364938,0 -0.514255,-0.0603 -0.331771,-0.13385 z M 27.054156,221.9451 c 0.191545,-0.0769 0.420521,-0.0675 0.508738,0.022 0.08809,0.0881 -0.06866,0.15079 -0.348385,0.13953 -0.309107,-0.012 -0.372087,-0.0755 -0.16051,-0.1605 z m 7.086007,-0.0881 c 0.08903,-0.14388 0.532753,-0.26146 0.98641,-0.26146 1.002618,0 0.901359,0.13236 -0.272112,0.356 -0.547236,0.10439 -0.815211,0.0686 -0.714266,-0.0947 z m 27.911441,0.0924 c -0.09749,-0.0972 -0.175244,-0.30629 -0.17305,-0.4645 0.0027,-0.18183 0.07805,-0.17085 0.205339,0.0283 0.110656,0.17429 0.915153,0.36064 1.787545,0.41429 l 1.586188,0.0975 -1.614653,0.0501 c -0.888098,0.0283 -1.694312,-0.0283 -1.79162,-0.12668 z m -34.814963,-0.8847 c -0.09029,-0.14611 0.02194,-0.26553 0.249854,-0.26553 0.227598,0 0.413782,0.11949 0.413782,0.26553 0,0.14612 -0.11254,0.26552 -0.249854,0.26552 -0.137307,0 -0.323558,-0.11949 -0.413782,-0.26552 z m 25.684941,-0.7148 c 0.258319,-0.0674 0.616581,-0.063 0.796276,0.009 0.179632,0.0727 -0.03166,0.12787 -0.469552,0.12218 -0.437953,-0.006 -0.584982,-0.0649 -0.326724,-0.13235 z m -14.802515,-2.73575 c 0.09029,-0.14611 0.276502,-0.26552 0.413811,-0.26552 0.137307,0 0.249856,0.1195 0.249856,0.26552 0,0.14612 -0.186216,0.26554 -0.413813,0.26554 -0.227597,0 -0.339985,-0.1195 -0.249854,-0.26554 z m 14.001192,-0.97922 c 0.255498,-0.0667 0.67351,-0.0667 0.928977,0 0.255498,0.0668 0.04639,0.12129 -0.464473,0.12129 -0.510964,0 -0.719971,-0.0546 -0.464504,-0.12129 z m 10.206969,-1.9447 c -0.05768,-0.22132 -0.01256,-0.63934 0.100636,-0.92897 0.165526,-0.42363 0.209414,-0.43922 0.224463,-0.0797 0.01256,0.27713 0.295938,0.48887 0.748562,0.55747 l 0.729939,0.11067 -0.796275,0.0815 c -0.606142,0.0621 -0.479395,0.12129 0.53084,0.24829 l 1.327116,0.16678 -1.380097,0.12324 c -1.081962,0.0966 -1.402825,0.0363 -1.485116,-0.27933 z m -11.99859,-0.26115 c 0.754331,-0.32415 2.323746,-0.32415 2.123392,0 -0.09029,0.14612 -0.72433,0.25707 -1.409127,0.24672 -0.939794,-0.012 -1.114942,-0.0746 -0.714265,-0.24672 z m -22.760227,-0.45275 c 0.32848,-0.0633 0.865966,-0.0633 1.194414,0 0.32848,0.0634 0.05957,0.11501 -0.597206,0.11501 -0.656928,0 -0.925655,-0.0517 -0.597208,-0.11501 z m 1.199461,-1.32372 c 0.258319,-0.0674 0.616581,-0.063 0.796276,0.009 0.179632,0.0727 -0.03166,0.12787 -0.469552,0.12219 -0.437951,-0.006 -0.58498,-0.0649 -0.326724,-0.13236 z M 230.88416,211.5991 c 0.18246,-0.0737 0.48109,-0.0737 0.66358,0 0.18246,0.0737 0.0332,0.13385 -0.33177,0.13385 -0.36496,0 -0.51425,-0.0601 -0.33181,-0.13385 z M 50.726776,211.24404 c -0.321959,-0.20817 -0.283713,-0.25802 0.199069,-0.26147 0.328479,-0.001 0.597207,0.11531 0.597207,0.26147 0,0.33255 -0.281518,0.33255 -0.796276,0 z m -21.595438,-0.92899 c 0.08402,-0.21913 0.24672,-0.39814 0.361396,-0.39814 0.114739,0 0.277443,0.17932 0.361428,0.39814 0.103448,0.2693 -0.01256,0.39814 -0.361428,0.39814 -0.34801,0 -0.464787,-0.12892 -0.361396,-0.39814 z m 20.998231,-0.30848 c 0.182454,-0.0737 0.481088,-0.0737 0.663574,0 0.182453,0.0737 0.03323,0.13385 -0.331803,0.13385 -0.364938,0 -0.514255,-0.0601 -0.331771,-0.13385 z m -21.09626,-0.53899 c 0.258319,-0.0675 0.616581,-0.063 0.796276,0.009 0.179632,0.0727 -0.03166,0.12787 -0.469552,0.12219 -0.437953,-0.006 -0.584982,-0.0649 -0.326724,-0.13236 z m 19.901846,-2.65329 c 0.255498,-0.0667 0.673512,-0.0667 0.928979,0 0.255497,0.0668 0.04639,0.12129 -0.464475,0.12129 -0.510963,0 -0.71997,-0.0546 -0.464504,-0.12129 z m -18.695896,-3.44887 c 0.191544,-0.0769 0.420521,-0.0675 0.508739,0.022 0.08809,0.0881 -0.06866,0.1508 -0.348387,0.13954 -0.309105,-0.012 -0.372086,-0.0755 -0.160509,-0.16051 z m 0.121005,-1.59519 c 0.258319,-0.0675 0.616581,-0.0627 0.796276,0.009 0.179632,0.0727 -0.03166,0.12787 -0.469552,0.12218 -0.437951,-0.006 -0.58498,-0.0649 -0.326724,-0.13235 z m -1.464896,-2.13149 c 0.474442,-0.0589 1.250811,-0.0589 1.725254,0 0.474473,0.0589 0.08622,0.10694 -0.862611,0.10694 -0.948917,0 -1.337085,-0.0483 -0.862643,-0.10694 z m 1.393482,-0.60426 c 0,-0.14611 0.32848,-0.26363 0.729909,-0.26145 0.568805,0.003 0.642037,0.0609 0.331803,0.26145 -0.519304,0.33563 -1.061712,0.33563 -1.061712,0 z m 0.06646,-0.97922 c 0.255498,-0.0667 0.673512,-0.0667 0.928978,0 0.255498,0.0668 0.04639,0.12129 -0.464473,0.12129 -0.510964,0 -0.719972,-0.0546 -0.464505,-0.12129 z m 203.05035,-1.06171 c 0.2555,-0.0667 0.67352,-0.0667 0.92898,0 0.2555,0.0668 0.0464,0.12129 -0.46451,0.12129 -0.51092,0 -0.71992,-0.0546 -0.46447,-0.12129 z M 30.819818,194.27072 c 0,-0.13819 -0.627082,-0.29531 -1.393482,-0.34905 -1.205511,-0.0843 -1.13391,-0.10409 0.53084,-0.14671 1.555402,-0.0398 1.924323,0.0283 1.924323,0.34905 0,0.22101 -0.236062,0.39813 -0.530839,0.39813 -0.291865,0 -0.530842,-0.11322 -0.530842,-0.25142 z M 233.472,193.46055 c 0.0903,-0.14611 0.36604,-0.26363 0.61288,-0.26145 0.38679,0.003 0.39381,0.0395 0.0508,0.26145 -0.51981,0.33595 -0.87117,0.33595 -0.66358,0 z M 31.566312,192.4829 c 0.191544,-0.0769 0.420552,-0.0675 0.508738,0.022 0.08809,0.0881 -0.06866,0.1508 -0.348355,0.13953 -0.309105,-0.012 -0.372117,-0.0755 -0.160509,-0.16018 z m -0.414722,-1.32879 c 0.255498,-0.0667 0.673512,-0.0667 0.929009,0 0.255498,0.0668 0.04639,0.12129 -0.464505,0.12129 -0.510963,0 -0.719971,-0.0546 -0.464504,-0.12129 z m 0,-0.53086 c 0.255498,-0.0668 0.673512,-0.0668 0.929009,0 0.255498,0.0667 0.04639,0.12129 -0.464505,0.12129 -0.510963,0 -0.719971,-0.0546 -0.464504,-0.12129 z m -0.575074,-2.56642 c 0.28089,-0.24171 2.10129,-0.37467 2.10129,-0.15362 0,0.13669 -0.497672,0.24892 -1.105946,0.24892 -0.608273,0 -1.056193,-0.0429 -0.995344,-0.095 z m 0.442372,-0.88845 c 0.328448,-0.0633 0.865934,-0.0633 1.194414,0 0.328478,0.0633 0.05988,0.11501 -0.597208,0.11501 -0.656926,0 -0.925686,-0.0517 -0.597206,-0.11501 z m 0.66862,-0.79289 c 0.258319,-0.0675 0.616581,-0.063 0.796276,0.009 0.179632,0.0727 -0.03166,0.12787 -0.469552,0.12219 -0.437951,-0.006 -0.58498,-0.0649 -0.326724,-0.13236 z m 202.103972,-1.96698 c 0.21004,-0.21005 0.43178,-0.21225 0.78301,-0.009 0.42961,0.24985 0.39347,0.28591 -0.2928,0.2928 -0.57103,0.006 -0.7037,-0.0712 -0.49009,-0.28496 z m -202.04215,-1.2785 c -0.452842,-0.17681 -0.404376,-0.2254 0.331771,-0.3335 0.602943,-0.0884 0.862109,-0.022 0.862109,0.22571 0,0.38849 -0.385661,0.42332 -1.19388,0.10783 z m 202.71802,-1.27294 c 0.40145,-0.0609 1.05839,-0.0609 1.45984,0 0.40146,0.0609 0.0731,0.11067 -0.72991,0.11067 -0.80291,0 -1.13136,-0.0498 -0.72993,-0.11067 z M 30.753452,179.20093 c 0.474442,-0.0589 1.250842,-0.0589 1.725285,0 0.474442,0.0589 0.08622,0.10693 -0.862643,0.10693 -0.948916,0 -1.337085,-0.0483 -0.862642,-0.10693 z m 2.213114,-6.689 c -0.289983,-0.18372 -0.230106,-0.26459 0.265529,-0.35796 0.404784,-0.0761 0.200951,-0.14552 -0.554163,-0.1881 -1.115069,-0.063 -1.141528,-0.0809 -0.398138,-0.27023 1.430787,-0.36406 1.951879,-0.30816 1.854789,0.19907 -0.0489,0.2555 -0.09812,0.55411 -0.1091,0.66358 -0.02822,0.2696 -0.599339,0.24452 -1.05867,-0.0464 z m 0.507516,-6.75744 c 0,-0.23576 1.073812,-0.35879 1.209807,-0.13893 0.08182,0.13235 -0.157062,0.24044 -0.53059,0.24044 -0.373561,0 -0.679217,-0.0458 -0.679217,-0.10185 z m 0.202203,-5.92532 c 0.330173,-0.0637 0.807939,-0.0612 1.061713,0.006 0.253929,0.0664 -0.01567,0.11845 -0.600311,0.11531 -0.583914,-0.003 -0.791543,-0.0574 -0.461402,-0.12069 z m 0.527768,-0.5189 c 0.182454,-0.0737 0.481089,-0.0737 0.663574,0 0.182455,0.0737 0.03323,0.13385 -0.331802,0.13385 -0.364939,0 -0.514256,-0.0601 -0.331772,-0.13385 z m 0.06646,-0.6205 c -0.310359,-0.20065 -0.237001,-0.25833 0.331772,-0.26145 0.401461,-0.001 0.729909,0.1153 0.729909,0.26145 0,0.3356 -0.542376,0.3356 -1.061681,0 z m 0.07147,-0.98023 c 0.25832,-0.0675 0.616549,-0.0627 0.796276,0.009 0.179632,0.0727 -0.03166,0.12787 -0.469552,0.12234 -0.437951,-0.006 -0.58498,-0.0649 -0.326724,-0.13236 z m -0.867909,-9.37136 c -0.859382,-0.18089 -0.823424,-0.19813 0.480148,-0.23042 0.879822,-0.022 1.347524,0.0646 1.245106,0.23042 -0.179319,0.2903 -0.345659,0.2903 -1.725254,0 z m 0.654388,-0.78147 c 0.08622,-0.13953 -0.407543,-0.29499 -1.112372,-0.3503 -1.059893,-0.0834 -0.97409,-0.10753 0.52432,-0.14761 1.436869,-0.0383 1.79162,0.0314 1.79162,0.35026 0,0.25017 -0.252362,0.39814 -0.679217,0.39814 -0.37356,0 -0.609528,-0.11291 -0.524351,-0.25049 z m 0.09217,-1.25783 c 0.191546,-0.0769 0.420554,-0.0675 0.508739,0.022 0.08809,0.0881 -0.06866,0.15078 -0.348354,0.13953 -0.309107,-0.012 -0.372119,-0.0755 -0.16051,-0.1602 z m -0.809755,-0.80268 c 0.330171,-0.0637 0.807937,-0.0612 1.061679,0.006 0.253931,0.0664 -0.01567,0.11844 -0.600279,0.1153 -0.583946,-0.003 -0.791573,-0.0574 -0.4614,-0.12069 z m 0.594103,-2.46655 c 0,-0.14611 0.238883,-0.26552 0.53084,-0.26552 0.291864,0 0.530871,0.1195 0.530871,0.26552 0,0.14612 -0.238883,0.26554 -0.530871,0.26554 -0.291863,0 -0.53084,-0.1195 -0.53084,-0.26554 z m -0.194054,-4.96158 c 0.258321,-0.0674 0.616581,-0.0627 0.796276,0.009 0.179632,0.0727 -0.03166,0.12787 -0.469552,0.12218 -0.437951,-0.006 -0.58498,-0.0649 -0.326724,-0.13235 z m 0.127601,-6.36205 c 0.182452,-0.0737 0.481088,-0.0737 0.663572,0 0.182455,0.0737 0.03323,0.13385 -0.33177,0.13385 -0.364971,0 -0.514257,-0.0603 -0.331802,-0.13385 z"
       id="path309" /></g></svg>
