<?xml version="1.0" encoding="UTF-8" standalone="no"?>
<!-- Created with Inkscape (http://www.inkscape.org/) -->

<svg
   width="620"
   height="620"
   viewBox="0 0 164.04166 164.04167"
   version="1.1"
   id="svg5"
   inkscape:version="1.2.2 (b0a8486541, 2022-12-01)"
   xml:space="preserve"
   sodipodi:docname="404-favicon.svg"
   xmlns:inkscape="http://www.inkscape.org/namespaces/inkscape"
   xmlns:sodipodi="http://sodipodi.sourceforge.net/DTD/sodipodi-0.dtd"
   xmlns:xlink="http://www.w3.org/1999/xlink"
   xmlns="http://www.w3.org/2000/svg"
   xmlns:svg="http://www.w3.org/2000/svg"><sodipodi:namedview
     id="namedview7"
     pagecolor="#ffffff"
     bordercolor="#666666"
     borderopacity="1.0"
     inkscape:pageshadow="2"
     inkscape:pageopacity="0.0"
     inkscape:pagecheckerboard="0"
     inkscape:document-units="mm"
     showgrid="false"
     units="px"
     width="1000px"
     inkscape:snap-bbox="true"
     inkscape:bbox-paths="true"
     inkscape:bbox-nodes="true"
     inkscape:snap-bbox-edge-midpoints="true"
     inkscape:snap-bbox-midpoints="true"
     inkscape:object-paths="true"
     inkscape:snap-intersection-paths="true"
     inkscape:snap-smooth-nodes="true"
     inkscape:snap-midpoints="true"
     inkscape:snap-object-midpoints="true"
     inkscape:snap-center="true"
     inkscape:showpageshadow="0"
     inkscape:deskcolor="#d1d1d1"
     inkscape:zoom="0.5"
     inkscape:cx="252"
     inkscape:cy="350"
     inkscape:window-width="1366"
     inkscape:window-height="688"
     inkscape:window-x="0"
     inkscape:window-y="28"
     inkscape:window-maximized="1"
     inkscape:current-layer="layer1" /><defs
     id="defs2"><rect
       x="462.67111"
       y="597.33335"
       width="142.10919"
       height="252.14638"
       id="rect933" /><linearGradient
       inkscape:collect="always"
       id="linearGradient852"><stop
         style="stop-color:#3771c8;stop-opacity:1;"
         offset="0"
         id="stop848" /><stop
         style="stop-color:#6600ff;stop-opacity:1"
         offset="1"
         id="stop850" /></linearGradient><linearGradient
       inkscape:collect="always"
       xlink:href="#linearGradient852"
       id="linearGradient854"
       x1="-17.216063"
       y1="164.2751"
       x2="99.900528"
       y2="49.944988"
       gradientUnits="userSpaceOnUse" /><filter
       style="color-interpolation-filters:sRGB;"
       inkscape:label="Drop Shadow"
       id="filter1015"
       x="-0.30241935"
       y="-0.051510989"
       width="1.6048387"
       height="1.103022"><feFlood
         flood-opacity="0.498039"
         flood-color="rgb(208,42,212)"
         result="flood"
         id="feFlood1005" /><feComposite
         in="flood"
         in2="SourceGraphic"
         operator="in"
         result="composite1"
         id="feComposite1007" /><feGaussianBlur
         in="composite1"
         stdDeviation="3"
         result="blur"
         id="feGaussianBlur1009" /><feOffset
         dx="0"
         dy="0"
         result="offset"
         id="feOffset1011" /><feComposite
         in="SourceGraphic"
         in2="offset"
         operator="over"
         result="composite2"
         id="feComposite1013" /></filter><filter
       style="color-interpolation-filters:sRGB;"
       inkscape:label="Drop Shadow"
       id="filter1027"
       x="-0.044461931"
       y="-0.044406089"
       width="1.0889239"
       height="1.0888122"><feFlood
         flood-opacity="0.498039"
         flood-color="rgb(125,42,212)"
         result="flood"
         id="feFlood1017" /><feComposite
         in="flood"
         in2="SourceGraphic"
         operator="in"
         result="composite1"
         id="feComposite1019" /><feGaussianBlur
         in="composite1"
         stdDeviation="3"
         result="blur"
         id="feGaussianBlur1021" /><feOffset
         dx="0"
         dy="0"
         result="offset"
         id="feOffset1023" /><feComposite
         in="SourceGraphic"
         in2="offset"
         operator="over"
         result="composite2"
         id="feComposite1025" /></filter></defs><g
     inkscape:label="Layer 1"
     inkscape:groupmode="layer"
     id="layer1"><path
       style="fill:url(#linearGradient854);stroke-width:0.352778;fill-opacity:1;filter:url(#filter1027)"
       d="M 74.083332,162.87951 C 54.361312,160.69041 37.322209,152.34116 23.622551,138.15345 11.710913,125.81747 4.4983236,111.14508 1.6960556,93.548947 c -0.85782297,-5.38649 -0.85782297,-17.86727 0,-23.25376 C 4.4983236,52.699047 11.710913,38.026655 23.622551,25.690675 36.380024,12.478726 52.349202,4.1836765 70.202782,1.4949965 c 4.81751,-0.72550005 18.8186,-0.72550005 23.63611,0 28.466508,4.28695 52.752068,23.5111985 63.498078,50.2645685 2.38436,5.936122 3.88872,11.503362 5.00864,18.535622 0.85782,5.38649 0.85782,17.86727 0,23.25376 -1.92297,12.074793 -5.79058,22.493713 -11.77077,31.709163 -6.75582,10.4107 -14.52907,18.26861 -24.59736,24.86523 -9.66847,6.33467 -20.32083,10.39423 -32.138588,12.24786 -4.17453,0.65478 -15.7522,0.95267 -19.75556,0.50831 z m 20.80329,-5.46937 c 9.235708,-1.92731 17.042268,-4.81734 24.649008,-9.12521 3.57163,-2.02269 4.12994,-2.40426 10.09719,-6.90071 3.73724,-2.8161 3.94278,-3.0362 3.74746,-4.01285 -0.11367,-0.56833 -0.20695,-1.2913 -0.2073,-1.6066 -0.001,-0.88183 -2.72537,-2.39728 -5.46743,-3.04126 -4.85475,-1.14017 -8.03673,-1.07719 -17.04406,0.33731 -8.53661,1.34058 -12.706398,2.40926 -26.960198,6.90967 -8.59005,2.71217 -17.80244,5.16301 -22.67073,6.03127 -4.60992,0.82218 -16.119532,1.27 -18.475279,0.71884 -0.848068,-0.19841 -1.403693,-0.22845 -1.234723,-0.0668 0.16897,0.16169 2.57786,1.49412 5.353085,2.96096 7.296517,3.85654 14.110317,6.29084 20.883297,7.46077 10.81023,1.86731 19.47638,1.9734 27.32968,0.33457 z m 44.394818,-28.53856 c 1.65242,-1.53142 1.59815,-2.50127 -0.69266,-12.37729 -1.17897,-5.08269 -3.18259,-8.31382 -7.23374,-11.66542 -2.32313,-1.92196 -3.0932,-2.35346 -4.74517,-2.65884 -1.0846,-0.2005 -2.0443,-0.29224 -2.13268,-0.20387 -0.0884,0.0884 0.95905,1.62543 2.32759,3.41568 1.36855,1.79025 2.48827,3.5415 2.48827,3.89168 0,0.35017 0.0922,0.87705 0.20498,1.17085 0.35642,0.9288 -1.56606,1.54795 -5.66998,1.82608 -2.13262,0.14453 -4.4345,0.45627 -5.11528,0.69277 l -1.23777,0.42999 2.29305,1.15551 c 1.26118,0.63553 3.05828,1.79396 3.99354,2.57429 1.45195,1.21141 1.66826,1.55272 1.48,2.3353 -0.32366,1.34539 -0.94725,1.66809 -4.16135,2.1534 -3.32761,0.50246 -6.57951,2.03162 -9.03047,4.24644 -1.69863,1.53497 -1.59195,1.66318 0.70657,0.84921 2.94682,-1.04356 7.56021,-2.21664 11.13264,-2.83078 3.43193,-0.59 3.6674,-0.5896 5.29167,0.009 2.42207,0.89245 6.11322,3.15107 7.51761,4.60003 0.65992,0.68087 1.30429,1.23795 1.43192,1.23795 0.12764,0 0.6457,-0.38334 1.15126,-0.85188 z m 10.29373,-13.52382 c 0.72074,-1.50371 2.54089,-6.3059 4.04478,-10.67153 l 2.73432,-7.937503 0.76222,-10.30031 0.76221,-10.30032 -0.69313,-3.28162 c -0.38122,-1.8049 -1.18905,-5.66288 -1.79517,-8.5733 -0.9204,-4.41953 -1.5281,-6.28009 -3.68716,-11.28889 -1.42182,-3.298472 -3.10844,-7.233762 -3.74805,-8.745092 -0.88262,-2.08554 -2.38052,-4.31316 -6.21459,-9.24207 -4.47817,-5.75693 -5.5342,-6.88679 -9.30189,-9.95214 -7.80083,-6.34667 -13.17827,-9.699159 -21.04354,-13.119269 -9.23469,-4.0155995 -19.529828,-5.9939095 -31.361758,-6.0264595 -5.72939,-0.0158 -17.50937,1.64011 -19.29588,2.71235 -0.16116,0.0967 0.87071,0.9289698 2.29306,1.8494395 1.42234,0.92046 3.34577,2.56598 4.27427,3.6567 1.33122,1.56379 2.41286,2.35538 5.11528,3.74356 3.83943,1.972259 9.47867,6.460439 19.00231,15.123619 6.29684,5.72792 5.71917,4.88048 9.511888,13.95397 1.87075,4.47544 1.90563,4.62464 2.53276,10.833692 l 0.63588,6.29576 -1.81629,6.34525 c -1.61865,5.65482 -2.06191,6.75218 -4.073708,10.08507 -1.65669,2.74461 -2.89564,4.30979 -4.65568,5.8816 -1.31904,1.17798 -2.4871,2.05293 -2.59569,1.94434 -0.10859,-0.10859 0.0516,-1.67521 0.35594,-3.48138 0.66363,-3.93819 1.10421,-14.49842 0.66675,-15.98131 l -0.31144,-1.0557 -2.12388,2.02584 c -1.16814,1.11421 -2.22859,2.02584 -2.35657,2.02584 -0.12798,0 -0.2328,-0.99219 -0.23294,-2.20486 -1.5e-4,-1.28101 -0.38492,-3.60822 -0.91829,-5.55411 -0.73192,-2.67023 -1.30326,-3.89588 -2.81815,-6.04551 -2.31208,-3.28086 -4.33197,-5.17825 -4.77257,-4.48313 -0.16466,0.25979 -0.30752,1.02796 -0.31747,1.70706 -0.0109,0.74335 -0.34003,1.62812 -0.82708,2.22326 l -0.80898,0.98854 -2.51262,-1.94135 c -4.18449,-3.23311 -7.54106,-4.27779 -17.71625,-5.513902 -3.90771,-0.47472 -17.743978,-0.30549 -19.009625,0.23251 -0.768466,0.32665 -0.615251,0.43644 1.763889,1.263992 2.666563,0.92753 7.900158,1.68096 16.892956,2.43191 4.21487,0.35197 5.08702,0.54177 7.58472,1.65066 1.55222,0.68912 4.25097,2.33233 5.99722,3.65157 3.16009,2.38735 3.18144,2.41399 4.54534,5.67307 1.54101,3.6823 3.02035,10.69849 3.03344,14.38696 0.0157,4.43869 -0.73993,13.60701 -1.30253,15.80323 -0.67648,2.64074 -0.72017,2.67706 -6.9818,5.802253 -3.39539,1.69465 -6.18901,2.75559 -10.75973,4.08626 -11.158289,3.24853 -14.495729,3.9605 -20.272352,4.32469 -4.915375,0.3099 -5.627157,0.27314 -9.713753,-0.50157 -3.960877,-0.75088 -4.804706,-1.05108 -8.290278,-2.94929 -3.777259,-2.05705 -3.907576,-2.16877 -4.895646,-4.19708 l -1.015092,-2.08377 0.966592,-4.056943 c 0.531626,-2.23132 1.182175,-4.40141 1.445665,-4.82242 0.26349,-0.42101 1.863385,-2.32601 3.555322,-4.23333 2.961695,-3.33873 3.346336,-3.63239 10.329149,-7.88612 15.331816,-9.33971 18.607869,-11.56569 21.094563,-14.33315 1.97973,-2.20325 3.89197,-5.26033 3.5219,-5.6304 -0.0613,-0.0613 -2.68174,-0.45024 -5.823174,-0.86428 -4.716494,-0.62164 -6.534972,-1.04302 -10.436634,-2.4184 -4.293706,-1.51358 -5.119688,-1.95311 -9.050263,-4.815832 -3.380881,-2.46238 -4.466673,-3.45836 -4.972637,-4.56135 -0.356018,-0.77611 -0.650792,-1.5979 -0.655053,-1.82619 -0.01294,-0.69328 3.495518,-2.45511 7.147573,-3.58928 5.748535,-1.78525 10.753873,-4.76203 16.388545,-9.74661 2.670103,-2.36205 5.552403,-5.21892 6.405093,-6.34861 l 1.55035,-2.05398 -0.33798,-3.73989 c -0.32214,-3.564669 -0.29339,-3.884499 0.61379,-6.826689 0.52347,-1.69774 0.84015,-3.0868097 0.70374,-3.0868097 -0.96871,0 -4.23946,1.2669197 -4.96219,1.9220897 -0.48507,0.43972 -2.469448,1.6388 -4.409725,2.6646 -1.940278,1.02581 -4.321528,2.44688 -5.291667,3.15793 -0.970138,0.71106 -2.716388,1.991569 -3.880555,2.845599 -7.078174,5.19248 -14.740138,13.21301 -19.44015,20.34991 -6.460572,9.81028 -10.4968484,21.330722 -11.9714834,34.169312 -0.532505,4.63614 -0.553127,6.012 -0.171513,11.44334 0.634,9.02344 3.542351,21.655523 4.7157164,20.482153 0.732083,-0.73208 1.944622,-0.35235 3.634138,1.1381 5.898531,5.20353 8.486671,6.52721 14.853487,7.59666 4.785584,0.80384 9.636354,0.45685 18.882764,-1.35075 6.094338,-1.1914 7.779488,-1.68033 13.344328,-3.87169 3.50303,-1.37945 10.2067,-4.34142 14.89704,-6.58216 11.08146,-5.294003 15.30969,-7.016853 20.74617,-8.453303 11.519698,-3.04378 16.599328,-3.65189 24.723678,-2.95981 4.87055,0.4149 5.17768,0.48968 9.20882,2.24209 l 4.17022,1.81288 3.78201,4.059283 c 4.71195,5.05741 7.3307,9.63129 8.33038,14.54974 0.34506,1.69775 0.6689,3.08681 0.71964,3.08681 0.0507,0 0.68195,-1.23031 1.4027,-2.73403 z"
       id="path223" /><text
       xml:space="preserve"
       transform="matrix(0.61859871,0,0,0.61859871,-248.0824,-353.98611)"
       id="text931"
       style="font-size:192px;text-align:center;white-space:pre;shape-inside:url(#rect933);fill:#aa00d4;fill-opacity:1;stroke-width:1.00157;filter:url(#filter1015)"><tspan
         x="507.90265"
         y="772.03002"
         id="tspan1052">!</tspan></text></g></svg>
