<?xml version="1.0" encoding="UTF-8" standalone="no"?>
<!-- Created with Inkscape (http://www.inkscape.org/) -->

<svg
   width="612.04266"
   height="612.81232"
   viewBox="0 0 161.93629 162.13993"
   version="1.1"
   id="svg5"
   inkscape:version="1.2.2 (b0a8486541, 2022-12-01)"
   xml:space="preserve"
   sodipodi:docname="index.svg"
   inkscape:export-filename="github.png"
   inkscape:export-xdpi="96"
   inkscape:export-ydpi="96"
   xmlns:inkscape="http://www.inkscape.org/namespaces/inkscape"
   xmlns:sodipodi="http://sodipodi.sourceforge.net/DTD/sodipodi-0.dtd"
   xmlns:xlink="http://www.w3.org/1999/xlink"
   xmlns="http://www.w3.org/2000/svg"
   xmlns:svg="http://www.w3.org/2000/svg"><sodipodi:namedview
     id="namedview7"
     pagecolor="#ffffff"
     bordercolor="#666666"
     borderopacity="1.0"
     inkscape:pageshadow="2"
     inkscape:pageopacity="0.0"
     inkscape:pagecheckerboard="0"
     inkscape:document-units="mm"
     showgrid="false"
     units="px"
     width="1000px"
     inkscape:snap-bbox="true"
     inkscape:bbox-paths="true"
     inkscape:bbox-nodes="true"
     inkscape:snap-bbox-edge-midpoints="true"
     inkscape:snap-bbox-midpoints="true"
     inkscape:object-paths="true"
     inkscape:snap-intersection-paths="true"
     inkscape:snap-smooth-nodes="true"
     inkscape:snap-midpoints="true"
     inkscape:snap-object-midpoints="true"
     inkscape:snap-center="true"
     inkscape:showpageshadow="0"
     inkscape:deskcolor="#d1d1d1"
     inkscape:zoom="0.508"
     inkscape:cx="231.29921"
     inkscape:cy="387.79528"
     inkscape:window-width="1366"
     inkscape:window-height="688"
     inkscape:window-x="0"
     inkscape:window-y="28"
     inkscape:window-maximized="1"
     inkscape:current-layer="layer1" /><defs
     id="defs2"><linearGradient
       inkscape:collect="always"
       id="linearGradient962"><stop
         style="stop-color:#2d1650;stop-opacity:1;"
         offset="0"
         id="stop958" /><stop
         style="stop-color:#7f2aff;stop-opacity:1"
         offset="1"
         id="stop960" /></linearGradient><filter
       style="color-interpolation-filters:sRGB;"
       inkscape:label="Blur"
       id="filter257"
       x="-0.017784771"
       y="-0.017762436"
       width="1.0355695"
       height="1.0355249"><feGaussianBlur
         stdDeviation="0.2 0.2"
         result="fbSourceGraphic"
         id="feGaussianBlur255" /><feColorMatrix
         result="fbSourceGraphicAlpha"
         in="fbSourceGraphic"
         values="0 0 0 -1 0 0 0 0 -1 0 0 0 0 -1 0 0 0 0 1 0"
         id="feColorMatrix259" /><feGaussianBlur
         id="feGaussianBlur261"
         stdDeviation="1 1"
         result="blur"
         in="fbSourceGraphic" /></filter><filter
       style="color-interpolation-filters:sRGB;"
       inkscape:label="Blur"
       id="filter316"
       x="-0.0074102836"
       y="-0.0074010506"
       width="1.0148206"
       height="1.0148021"><feGaussianBlur
         stdDeviation="0.5 0.5"
         result="blur"
         id="feGaussianBlur314" /></filter><filter
       style="color-interpolation-filters:sRGB;"
       inkscape:label="Blur"
       id="filter439"
       x="-0.01059709"
       y="-0.017204745"
       width="1.0212049"
       height="1.0344125"><feGaussianBlur
         stdDeviation="0.5 0.5"
         result="fbSourceGraphic"
         id="feGaussianBlur437" /><feColorMatrix
         result="fbSourceGraphicAlpha"
         in="fbSourceGraphic"
         values="0 0 0 -1 0 0 0 0 -1 0 0 0 0 -1 0 0 0 0 1 0"
         id="feColorMatrix441" /><feGaussianBlur
         id="feGaussianBlur443"
         stdDeviation="1 1"
         result="blur"
         in="fbSourceGraphic" /></filter><linearGradient
       xlink:href="#linearGradient6924"
       id="linearGradient6918"
       x1="42519.285"
       y1="-7078.7891"
       x2="42575.336"
       y2="-6966.9307"
       gradientUnits="userSpaceOnUse" /><linearGradient
       id="linearGradient6924"><stop
         style="stop-color:#2185d0;stop-opacity:0"
         offset="0"
         id="stop6920" /><stop
         id="stop6926"
         offset="0.49517274"
         style="stop-color:#2185d0;stop-opacity:0.48923996" /><stop
         style="stop-color:#2185d0;stop-opacity:0.63279623"
         offset="1"
         id="stop6922" /></linearGradient><linearGradient
       xlink:href="#linearGradient6924-6"
       id="linearGradient6918-3"
       x1="42519.285"
       y1="-7078.7891"
       x2="42575.336"
       y2="-6966.9307"
       gradientUnits="userSpaceOnUse" /><linearGradient
       id="linearGradient6924-6"><stop
         style="stop-color:#ffffff;stop-opacity:0;"
         offset="0"
         id="stop6920-7" /><stop
         id="stop6926-5"
         offset="0.0001"
         style="stop-color:#082c0d;stop-opacity:1;" /><stop
         style="stop-color:#1795ff;stop-opacity:0.55935162;"
         offset="1"
         id="stop6922-3" /></linearGradient><linearGradient
       inkscape:collect="always"
       xlink:href="#linearGradient962"
       id="linearGradient964"
       x1="7.9191499"
       y1="157.94867"
       x2="135.84973"
       y2="26.232346"
       gradientUnits="userSpaceOnUse" /><filter
       inkscape:label="Drop Shadow"
       inkscape:menu-tooltip="Emboss effect : 3D relief where white is replaced by black"
       inkscape:menu="Bumps"
       style="color-interpolation-filters:sRGB;"
       id="filter1078"
       x="-0.044461702"
       y="-0.044406304"
       width="1.0889234"
       height="1.0888126"><feColorMatrix
         result="result2"
         type="luminanceToAlpha"
         id="feColorMatrix1064" /><feDiffuseLighting
         diffuseConstant="0.5"
         result="result1"
         surfaceScale="-10"
         id="feDiffuseLighting1068"><feDistantLight
           elevation="20"
           azimuth="225"
           id="feDistantLight1066" /></feDiffuseLighting><feComposite
         result="result3"
         k3="1"
         k2="1"
         k1="1"
         in="result1"
         operator="arithmetic"
         in2="SourceGraphic"
         id="feComposite1070" /><feBlend
         result="result4"
         mode="multiply"
         in="result2"
         in2="result3"
         id="feBlend1072" /><feComposite
         result="result5"
         operator="arithmetic"
         k2="1.2"
         in2="result4"
         id="feComposite1074" /><feComposite
         operator="in"
         in="result5"
         in2="SourceGraphic"
         id="feComposite1076"
         result="fbSourceGraphic" /><feColorMatrix
         result="fbSourceGraphicAlpha"
         in="fbSourceGraphic"
         values="0 0 0 -1 0 0 0 0 -1 0 0 0 0 -1 0 0 0 0 1 0"
         id="feColorMatrix1262" /><feFlood
         id="feFlood1264"
         flood-opacity="0.498039"
         flood-color="rgb(42,115,212)"
         result="flood"
         in="fbSourceGraphic" /><feComposite
         in2="fbSourceGraphic"
         id="feComposite1266"
         in="flood"
         operator="in"
         result="composite1" /><feGaussianBlur
         id="feGaussianBlur1268"
         in="composite1"
         stdDeviation="3"
         result="blur" /><feOffset
         id="feOffset1270"
         dx="0"
         dy="0"
         result="offset" /><feComposite
         in2="offset"
         id="feComposite1272"
         in="fbSourceGraphic"
         operator="over"
         result="composite2" /></filter></defs><g
     inkscape:label="Layer 1"
     inkscape:groupmode="layer"
     id="layer1"><path
       id="path223"
       style="fill:url(#linearGradient964);fill-opacity:1;stroke-width:0.352778;filter:url(#filter1078)"
       sodipodi:type="inkscape:offset"
       inkscape:radius="0"
       inkscape:original="M 80.96875 0 C 76.264101 0 71.559146 0.18217188 69.150391 0.54492188 C 51.296813 3.2336019 35.327782 11.528284 22.570312 24.740234 C 10.658672 37.076224 3.4448481 51.74761 0.64257812 69.34375 C -0.21524187 74.73024 -0.21524187 87.211166 0.64257812 92.597656 C 3.4448481 110.19379 10.658672 124.86714 22.570312 137.20312 C 36.269972 151.39084 53.309232 159.73863 73.03125 161.92773 C 77.03461 162.37209 88.612579 162.0747 92.787109 161.41992 C 104.60487 159.56629 115.25536 155.50654 124.92383 149.17188 C 134.99212 142.57526 142.76566 134.71734 149.52148 124.30664 C 155.50167 115.09119 159.37 104.67245 161.29297 92.597656 C 162.15079 87.211166 162.15079 74.73024 161.29297 69.34375 C 160.17305 62.31149 158.66952 56.744714 156.28516 50.808594 C 145.53915 24.055234 121.25362 4.8318719 92.787109 0.54492188 C 90.378354 0.18217188 85.673399 0 80.96875 0 z M 78.980469 4.9589844 C 90.812396 4.9915344 101.10711 6.968775 110.3418 10.984375 C 118.20707 14.404495 123.58589 17.756846 131.38672 24.103516 C 135.15441 27.168866 136.20933 28.299711 140.6875 34.056641 C 144.52157 38.985551 146.01972 41.213278 146.90234 43.298828 C 147.54195 44.810148 149.22857 48.744499 150.65039 52.042969 C 152.80945 57.051769 153.41749 58.912501 154.33789 63.332031 C 154.94401 66.242451 155.75159 70.10135 156.13281 71.90625 L 156.82617 75.1875 L 156.06445 85.488281 L 155.30078 95.787109 L 152.56641 103.72461 C 151.06252 108.09024 149.24418 112.89277 148.52344 114.39648 C 147.80269 115.9002 147.16984 117.13086 147.11914 117.13086 C 147.0684 117.13086 146.74545 115.74267 146.40039 114.04492 C 145.40071 109.12647 142.78226 104.55155 138.07031 99.494141 L 134.28711 95.435547 L 130.11719 93.623047 C 126.08605 91.870637 125.77875 91.795759 120.9082 91.380859 C 112.78385 90.688779 107.70525 91.296064 96.185547 94.339844 C 90.749067 95.776294 86.52091 97.498965 75.439453 102.79297 C 70.749113 105.03371 64.044044 107.99555 60.541016 109.375 C 54.976176 111.56636 53.291606 112.05665 47.197266 113.24805 C 37.950856 115.05565 33.100033 115.4015 28.314453 114.59766 C 21.947633 113.52821 19.359467 112.20548 13.460938 107.00195 C 11.771417 105.5115 10.558252 105.1312 9.8261719 105.86328 C 8.6528119 107.03665 5.7453281 94.4043 5.1113281 85.380859 C 4.7297081 79.949519 4.7506931 78.57364 5.2832031 73.9375 C 6.7578331 61.09891 10.793336 49.577858 17.253906 39.767578 C 21.953916 32.630688 29.617142 24.610459 36.695312 19.417969 C 37.859483 18.563949 39.604079 17.283316 40.574219 16.572266 C 41.544359 15.861206 43.926918 14.439863 45.867188 13.414062 C 47.807468 12.388252 49.792274 11.18973 50.277344 10.75 C 51.000074 10.09483 54.269571 8.828125 55.238281 8.828125 C 55.374691 8.828125 55.058626 10.216323 54.535156 11.914062 C 53.627976 14.856252 53.599735 15.177508 53.921875 18.742188 L 54.259766 22.482422 L 52.708984 24.535156 C 51.856294 25.664846 48.972834 28.522726 46.302734 30.884766 C 40.668054 35.869346 35.664556 38.845609 29.916016 40.630859 C 26.263966 41.765029 22.754678 43.527433 22.767578 44.220703 C 22.771838 44.449003 23.065855 45.270765 23.421875 46.046875 C 23.927835 47.149865 25.013651 48.145052 28.394531 50.607422 C 32.325101 53.470142 33.151603 53.910248 37.445312 55.423828 C 41.346972 56.799208 43.166322 57.220157 47.882812 57.841797 C 51.024252 58.255837 53.643778 58.645731 53.705078 58.707031 C 54.075148 59.077101 52.163324 62.132688 50.183594 64.335938 C 47.696894 67.103397 44.419701 69.330212 29.087891 78.669922 C 22.105071 82.923652 21.721456 83.217911 18.759766 86.556641 C 17.067826 88.463962 15.468568 90.368053 15.205078 90.789062 C 14.941588 91.210073 14.289442 93.380008 13.757812 95.611328 L 12.792969 99.667969 L 13.806641 101.75195 C 14.794711 103.78026 14.925865 103.89217 18.703125 105.94922 C 22.188695 107.84743 23.031318 108.14756 26.992188 108.89844 C 31.078788 109.67315 31.791651 109.71029 36.707031 109.40039 C 42.483651 109.0362 45.820226 108.3247 56.978516 105.07617 C 61.549236 103.7455 64.342891 102.68293 67.738281 100.98828 C 73.999911 97.863087 74.044223 97.82824 74.720703 95.1875 C 75.283303 92.99128 76.039137 83.821502 76.023438 79.382812 C 76.010348 75.694343 74.531244 68.678394 72.990234 64.996094 C 71.626334 61.737014 71.605402 61.711569 68.445312 59.324219 C 66.699062 58.004979 63.999486 56.360995 62.447266 55.671875 C 59.949568 54.562985 59.078151 54.373454 54.863281 54.021484 C 45.870481 53.270534 40.63532 52.517374 37.96875 51.589844 C 35.58961 50.762294 35.436618 50.652822 36.205078 50.326172 C 37.470728 49.788172 51.307134 49.61903 55.214844 50.09375 C 65.390032 51.32986 68.747151 52.374312 72.931641 55.607422 L 75.443359 57.548828 L 76.253906 56.560547 C 76.740956 55.965407 77.069178 55.079287 77.080078 54.335938 C 77.090028 53.656838 77.233778 52.888696 77.398438 52.628906 C 77.839037 51.933786 79.857845 53.832421 82.169922 57.113281 C 83.684812 59.262911 84.256361 60.487973 84.988281 63.158203 C 85.521651 65.104093 85.9061 67.431881 85.90625 68.712891 C 85.90639 69.925561 86.012645 70.917969 86.140625 70.917969 C 86.268605 70.917969 87.327954 70.004835 88.496094 68.890625 L 90.621094 66.865234 L 90.931641 67.921875 C 91.369101 69.404765 90.929255 79.964154 90.265625 83.902344 C 89.961285 85.708514 89.799613 87.274222 89.908203 87.382812 C 90.016793 87.491403 91.184866 86.617433 92.503906 85.439453 C 94.263946 83.867643 95.503466 82.303204 97.160156 79.558594 C 99.171956 76.225704 99.615725 75.127476 101.23438 69.472656 L 103.05078 63.126953 L 102.41406 56.832031 C 101.78693 50.622981 101.75161 50.473487 99.880859 45.998047 C 96.088139 36.924557 96.665981 37.772842 90.369141 32.044922 C 80.845504 23.381732 75.206618 18.892172 71.367188 16.919922 C 68.664767 15.531732 67.583173 14.741524 66.251953 13.177734 C 65.323453 12.087014 63.400856 10.440001 61.978516 9.5195312 C 60.556168 8.5990713 59.524387 7.7666219 59.685547 7.6699219 C 61.472057 6.5976819 73.251079 4.9431844 78.980469 4.9589844 z M 123.42383 101.01562 C 123.51221 100.92726 124.47204 101.01825 125.55664 101.21875 C 127.20861 101.52413 127.9796 101.95695 130.30273 103.87891 C 134.35388 107.23051 136.35619 110.46028 137.53516 115.54297 C 139.82597 125.41899 139.88094 126.3885 138.22852 127.91992 C 137.72296 128.38846 137.20577 128.77344 137.07812 128.77344 C 136.9505 128.77344 136.3064 128.21603 135.64648 127.53516 C 134.24209 126.0862 130.55098 123.828 128.12891 122.93555 C 126.50464 122.33695 126.26787 122.33578 122.83594 122.92578 C 119.26351 123.53992 114.64995 124.7123 111.70312 125.75586 C 109.4046 126.56983 109.29942 126.44317 110.99805 124.9082 C 113.44901 122.69338 116.69973 121.16262 120.02734 120.66016 C 123.24144 120.17485 123.86579 119.8532 124.18945 118.50781 C 124.37771 117.72523 124.16093 117.38329 122.70898 116.17188 C 121.77372 115.39154 119.97602 114.23319 118.71484 113.59766 L 116.42188 112.44141 L 117.66016 112.01172 C 118.34094 111.77522 120.64277 111.46484 122.77539 111.32031 C 126.87931 111.04218 128.80173 110.42294 128.44531 109.49414 C 128.33253 109.20034 128.24023 108.67244 128.24023 108.32227 C 128.24023 107.97209 127.1205 106.22189 125.75195 104.43164 C 124.38341 102.64139 123.33543 101.10402 123.42383 101.01562 z M 119.6875 130.98242 C 122.21576 130.93239 124.22497 131.20335 126.65234 131.77344 C 129.3944 132.41742 132.12009 133.93262 132.12109 134.81445 C 132.12144 135.12975 132.21445 135.85159 132.32812 136.41992 C 132.52345 137.39657 132.31732 137.61749 128.58008 140.43359 C 122.61283 144.93004 122.05405 145.31129 118.48242 147.33398 C 110.87568 151.64185 103.06969 154.53167 93.833984 156.45898 C 85.980684 158.09781 77.314136 157.99231 66.503906 156.125 C 59.730928 154.95507 52.917614 152.5206 45.621094 148.66406 C 42.845874 147.19722 40.436548 145.86481 40.267578 145.70312 C 40.098608 145.54147 40.653883 145.57112 41.501953 145.76953 C 43.857703 146.32069 55.368596 145.87296 59.978516 145.05078 C 64.846804 144.18252 74.058391 141.7317 82.648438 139.01953 C 96.902238 134.51912 101.07277 133.44995 109.60938 132.10938 C 114.11304 131.40212 117.15924 131.03246 119.6875 130.98242 z "
       d="M 80.96875,0 C 76.264101,0 71.559146,0.18217188 69.150391,0.54492188 51.296813,3.2336019 35.327782,11.528284 22.570312,24.740234 10.658672,37.076224 3.4448481,51.74761 0.64257812,69.34375 c -0.85781999,5.38649 -0.85781999,17.867416 0,23.253906 C 3.4448481,110.19379 10.658672,124.86714 22.570312,137.20312 c 13.69966,14.18772 30.73892,22.53551 50.460938,24.72461 4.00336,0.44436 15.581329,0.14697 19.755859,-0.50781 11.817761,-1.85363 22.468251,-5.91338 32.136721,-12.24804 10.06829,-6.59662 17.84183,-14.45454 24.59765,-24.86524 5.98019,-9.21545 9.84852,-19.63419 11.77149,-31.708984 0.85782,-5.38649 0.85782,-17.867416 0,-23.253906 -1.11992,-7.03226 -2.62345,-12.599036 -5.00781,-18.535156 C 145.53915,24.055234 121.25362,4.8318719 92.787109,0.54492188 90.378354,0.18217188 85.673399,0 80.96875,0 Z m -1.988281,4.9589844 c 11.831927,0.03255 22.126641,2.0097906 31.361331,6.0253906 7.86527,3.42012 13.24409,6.772471 21.04492,13.119141 3.76769,3.06535 4.82261,4.196195 9.30078,9.953125 3.83407,4.92891 5.33222,7.156637 6.21484,9.242187 0.63961,1.51132 2.32623,5.445671 3.74805,8.744141 2.15906,5.0088 2.7671,6.869532 3.6875,11.289062 0.60612,2.91042 1.4137,6.769319 1.79492,8.574219 l 0.69336,3.28125 -0.76172,10.300781 -0.76367,10.298828 -2.73437,7.937501 c -1.50389,4.36563 -3.32223,9.16816 -4.04297,10.67187 -0.72075,1.50372 -1.3536,2.73438 -1.4043,2.73438 -0.0507,0 -0.37369,-1.38819 -0.71875,-3.08594 -0.99968,-4.91845 -3.61813,-9.49337 -8.33008,-14.550779 l -3.7832,-4.058594 -4.16992,-1.8125 c -4.03114,-1.75241 -4.33844,-1.827288 -9.20899,-2.242188 -8.12435,-0.69208 -13.20295,-0.08479 -24.722653,2.958985 -5.43648,1.43645 -9.664637,3.159121 -20.746094,8.453126 -4.69034,2.24074 -11.395409,5.20258 -14.898437,6.58203 -5.56484,2.19136 -7.24941,2.68165 -13.34375,3.87305 -9.24641,1.8076 -14.097233,2.15345 -18.882813,1.34961 -6.36682,-1.06945 -8.954986,-2.39218 -14.853515,-7.59571 C 11.771417,105.5115 10.558252,105.1312 9.8261719,105.86328 8.6528119,107.03665 5.7453281,94.4043 5.1113281,85.380859 4.7297081,79.949519 4.7506931,78.57364 5.2832031,73.9375 6.7578331,61.09891 10.793336,49.577858 17.253906,39.767578 c 4.70001,-7.13689 12.363236,-15.157119 19.441406,-20.349609 1.164171,-0.85402 2.908767,-2.134653 3.878907,-2.845703 0.97014,-0.71106 3.352699,-2.132403 5.292969,-3.158204 1.94028,-1.02581 3.925086,-2.224332 4.410156,-2.664062 0.72273,-0.65517 3.992227,-1.921875 4.960937,-1.921875 0.13641,0 -0.179655,1.388198 -0.703125,3.085937 -0.90718,2.94219 -0.935421,3.263446 -0.613281,6.828126 l 0.337891,3.740234 -1.550782,2.052734 c -0.85269,1.12969 -3.73615,3.98757 -6.40625,6.34961 -5.63468,4.98458 -10.638178,7.960843 -16.386718,9.746093 -3.65205,1.13417 -7.161338,2.896574 -7.148438,3.589844 0.0043,0.2283 0.298277,1.050062 0.654297,1.826172 0.50596,1.10299 1.591776,2.098177 4.972656,4.560547 3.93057,2.86272 4.757072,3.302826 9.050781,4.816406 3.90166,1.37538 5.72101,1.796329 10.4375,2.417969 3.14144,0.41404 5.760966,0.803934 5.822266,0.865234 0.37007,0.37007 -1.541754,3.425657 -3.521484,5.628907 -2.4867,2.767459 -5.763893,4.994274 -21.095703,14.333984 -6.98282,4.25373 -7.366435,4.547989 -10.328125,7.886719 -1.69194,1.907321 -3.291198,3.811412 -3.554688,4.232421 -0.26349,0.421011 -0.915636,2.590946 -1.447266,4.822266 l -0.964843,4.056641 1.013672,2.083981 c 0.98807,2.02831 1.119224,2.14022 4.896484,4.19727 3.48557,1.89821 4.328193,2.19834 8.289063,2.94922 4.0866,0.77471 4.799463,0.81185 9.714843,0.50195 5.77662,-0.36419 9.113195,-1.07569 20.271485,-4.32422 4.57072,-1.33067 7.364375,-2.39324 10.759765,-4.08789 6.26163,-3.125193 6.305942,-3.16004 6.982422,-5.80078 0.5626,-2.19622 1.318434,-11.365998 1.302735,-15.804688 -0.01309,-3.688469 -1.492194,-10.704418 -3.033204,-14.386718 -1.3639,-3.25908 -1.384832,-3.284525 -4.544922,-5.671875 -1.74625,-1.31924 -4.445826,-2.963224 -5.998046,-3.652344 -2.497698,-1.10889 -3.369115,-1.298421 -7.583985,-1.650391 -8.9928,-0.75095 -14.227961,-1.50411 -16.894531,-2.43164 -2.37914,-0.82755 -2.532132,-0.937022 -1.763672,-1.263672 1.26565,-0.538 15.102056,-0.707142 19.009766,-0.232422 10.175188,1.23611 13.532307,2.280562 17.716797,5.513672 l 2.511718,1.941406 0.810547,-0.988281 c 0.48705,-0.59514 0.815272,-1.48126 0.826172,-2.224609 0.01,-0.6791 0.1537,-1.447242 0.31836,-1.707032 0.440599,-0.69512 2.459407,1.203515 4.771484,4.484375 1.51489,2.14963 2.086439,3.374692 2.818359,6.044922 0.53337,1.94589 0.917819,4.273678 0.917969,5.554688 1.4e-4,1.21267 0.106395,2.205078 0.234375,2.205078 0.12798,0 1.187329,-0.913134 2.355469,-2.027344 l 2.125,-2.025391 0.310547,1.056641 c 0.43746,1.48289 -0.0024,12.042279 -0.666016,15.980469 -0.30434,1.80617 -0.466012,3.371878 -0.357422,3.480468 0.10859,0.108591 1.276663,-0.765379 2.595703,-1.943359 1.76004,-1.57181 2.99956,-3.136249 4.65625,-5.880859 2.0118,-3.33289 2.455569,-4.431118 4.074224,-10.085938 l 1.8164,-6.345703 -0.63672,-6.294922 c -0.62713,-6.20905 -0.66245,-6.358544 -2.533201,-10.833984 -3.79272,-9.07349 -3.214878,-8.225205 -9.511718,-13.953125 -9.523637,-8.66319 -15.162523,-13.15275 -19.001953,-15.125 -2.702421,-1.38819 -3.784015,-2.178398 -5.115235,-3.742188 -0.9285,-1.09072 -2.851097,-2.737733 -4.273437,-3.6582028 C 60.556168,8.5990713 59.524387,7.7666219 59.685547,7.6699219 61.472057,6.5976819 73.251079,4.9431844 78.980469,4.9589844 Z M 123.42383,101.01562 c 0.0884,-0.0884 1.04821,0.003 2.13281,0.20313 1.65197,0.30538 2.42296,0.7382 4.74609,2.66016 4.05115,3.3516 6.05346,6.58137 7.23243,11.66406 2.29081,9.87602 2.34578,10.84553 0.69336,12.37695 -0.50556,0.46854 -1.02275,0.85352 -1.1504,0.85352 -0.12762,0 -0.77172,-0.55741 -1.43164,-1.23828 -1.40439,-1.44896 -5.0955,-3.70716 -7.51757,-4.59961 -1.62427,-0.5986 -1.86104,-0.59977 -5.29297,-0.01 -3.57243,0.61414 -8.18599,1.78652 -11.13282,2.83008 -2.29852,0.81397 -2.4037,0.68731 -0.70507,-0.84766 2.45096,-2.21482 5.70168,-3.74558 9.02929,-4.24804 3.2141,-0.48531 3.83845,-0.80696 4.16211,-2.15235 0.18826,-0.78258 -0.0285,-1.12452 -1.48047,-2.33593 -0.93526,-0.78034 -2.73296,-1.93869 -3.99414,-2.57422 l -2.29296,-1.15625 1.23828,-0.42969 c 0.68078,-0.2365 2.98261,-0.54688 5.11523,-0.69141 4.10392,-0.27813 6.02634,-0.89737 5.66992,-1.82617 -0.11278,-0.2938 -0.20508,-0.8217 -0.20508,-1.17187 0,-0.35018 -1.11973,-2.10038 -2.48828,-3.89063 -1.36854,-1.79025 -2.41652,-3.32762 -2.32812,-3.41602 z m -3.73633,29.9668 c 2.52826,-0.05 4.53747,0.22093 6.96484,0.79102 2.74206,0.64398 5.46775,2.15918 5.46875,3.04101 3.5e-4,0.3153 0.0934,1.03714 0.20703,1.60547 0.19533,0.97665 -0.0108,1.19757 -3.74804,4.01367 -5.96725,4.49645 -6.52603,4.8777 -10.09766,6.90039 -7.60674,4.30787 -15.41273,7.19769 -24.648436,9.125 -7.8533,1.63883 -16.519848,1.53333 -27.330078,-0.33398 -6.772978,-1.16993 -13.586292,-3.6044 -20.882812,-7.46094 -2.77522,-1.46684 -5.184546,-2.79925 -5.353516,-2.96094 -0.16897,-0.16165 0.386305,-0.132 1.234375,0.0664 2.35575,0.55116 13.866643,0.10343 18.476563,-0.71875 4.868288,-0.86826 14.079875,-3.31908 22.669922,-6.03125 14.2538,-4.50041 18.424332,-5.56958 26.960942,-6.91015 4.50366,-0.70726 7.54986,-1.07692 10.07812,-1.12696 z"
       transform="matrix(0.9914664,0,0,0.9914664,0.69131657,0.69220655)" /></g></svg>
